<svg xmlns="http://www.w3.org/2000/svg" viewBox="2189 2302 180 133.448">
  <defs>
    <style>
      .cls-1 {
        fill: #a0d2f0;
      }

      .cls-2 {
        fill: #87bee1;
      }

      .cls-3 {
        fill: #8f96ac;
      }

      .cls-4 {
        fill: #ff6464;
      }

      .cls-5 {
        fill: #ffd782;
      }

      .cls-6 {
        fill: #ffa05a;
      }

      .cls-7 {
        fill: #707487;
      }

      .cls-8 {
        fill: #5b5d6e;
      }

      .cls-9 {
        fill: #b4e1fa;
      }

      .cls-10 {
        fill: #afb9d2;
      }

      .cls-11 {
        fill: #eff2fa;
      }

      .cls-12 {
        fill: #ffc36e;
      }
    </style>
  </defs>
  <g id="credit-icon" transform="translate(2189 2235.793)">
    <path id="Path_95" data-name="Path 95" class="cls-1" d="M129.793,285.517H253.931a6.207,6.207,0,0,0,6.207-6.207V204.828a6.207,6.207,0,0,0-6.207-6.207H129.793a6.207,6.207,0,0,0-6.207,6.207v74.483A6.207,6.207,0,0,0,129.793,285.517Z" transform="translate(-80.138 -85.862)"/>
    <path id="Path_96" data-name="Path 96" class="cls-2" d="M129.793,198.621a6.207,6.207,0,0,0-6.207,6.207v40.345h86.9A12.414,12.414,0,0,0,222.9,232.759V198.621h-93.1Z" transform="translate(-80.138 -85.862)"/>
    <g id="Group_4" data-name="Group 4" transform="translate(58.965 159.31)">
      <path id="Path_97" data-name="Path 97" class="cls-3" d="M345.241,337.241H329.724a3.1,3.1,0,0,1-3.1-3.1h0a3.1,3.1,0,0,1,3.1-3.1h15.517a3.1,3.1,0,0,1,3.1,3.1h0A3.1,3.1,0,0,1,345.241,337.241Z" transform="translate(-270.758 -331.034)"/>
      <path id="Path_98" data-name="Path 98" class="cls-3" d="M186.345,337.241H170.828a3.1,3.1,0,0,1-3.1-3.1h0a3.1,3.1,0,0,1,3.1-3.1h15.517a3.1,3.1,0,0,1,3.1,3.1h0A3.1,3.1,0,0,1,186.345,337.241Z" transform="translate(-167.724 -331.034)"/>
      <path id="Path_99" data-name="Path 99" class="cls-3" d="M424.689,337.241H409.172a3.1,3.1,0,0,1-3.1-3.1h0a3.1,3.1,0,0,1,3.1-3.1h15.517a3.1,3.1,0,0,1,3.1,3.1h0A3.1,3.1,0,0,1,424.689,337.241Z" transform="translate(-322.275 -331.034)"/>
      <path id="Path_100" data-name="Path 100" class="cls-3" d="M265.793,337.241H250.276a3.1,3.1,0,0,1-3.1-3.1h0a3.1,3.1,0,0,1,3.1-3.1h15.517a3.1,3.1,0,0,1,3.1,3.1h0A3.1,3.1,0,0,1,265.793,337.241Z" transform="translate(-219.241 -331.034)"/>
      <path id="Path_101" data-name="Path 101" class="cls-3" d="M271.517,407.861H259.1a3.1,3.1,0,0,1-3.1-3.1h0a3.1,3.1,0,0,1,3.1-3.1h12.414a3.1,3.1,0,0,1,3.1,3.1h0A3.1,3.1,0,0,1,271.517,407.861Z" transform="translate(-224.965 -376.827)"/>
      <path id="Path_102" data-name="Path 102" class="cls-3" d="M262.206,372.551h-3.1a3.1,3.1,0,0,1-3.1-3.1h0a3.1,3.1,0,0,1,3.1-3.1h3.1a3.1,3.1,0,0,1,3.1,3.1h0A3.1,3.1,0,0,1,262.206,372.551Z" transform="translate(-224.965 -353.93)"/>
      <path id="Path_103" data-name="Path 103" class="cls-3" d="M306.344,372.551h-3.1a3.1,3.1,0,0,1-3.1-3.1h0a3.1,3.1,0,0,1,3.1-3.1h3.1a3.1,3.1,0,0,1,3.1,3.1h0A3.1,3.1,0,0,1,306.344,372.551Z" transform="translate(-253.586 -353.93)"/>
      <path id="Path_104" data-name="Path 104" class="cls-3" d="M360.758,407.861H329.724a3.1,3.1,0,0,1-3.1-3.1h0a3.1,3.1,0,0,1,3.1-3.1h31.035a3.1,3.1,0,0,1,3.1,3.1h0A3.1,3.1,0,0,1,360.758,407.861Z" transform="translate(-270.758 -376.827)"/>
    </g>
    <ellipse id="Ellipse_1" data-name="Ellipse 1" class="cls-4" cx="9.31" cy="9.31" rx="9.31" ry="9.31" transform="translate(52.759 171.724)"/>
    <ellipse id="Ellipse_2" data-name="Ellipse 2" class="cls-5" cx="9.31" cy="9.31" rx="9.31" ry="9.31" transform="translate(65.172 171.724)"/>
    <path id="Path_105" data-name="Path 105" class="cls-6" d="M185.379,380.113a9.251,9.251,0,0,1,3.1-6.894,9.208,9.208,0,0,1,0,13.788A9.249,9.249,0,0,1,185.379,380.113Z" transform="translate(-120.207 -199.078)"/>
    <rect id="Rectangle_8" data-name="Rectangle 8" class="cls-7" width="136.552" height="12.414" transform="translate(43.448 122.069)"/>
    <rect id="Rectangle_9" data-name="Rectangle 9" class="cls-8" width="99.31" height="12.414" transform="translate(43.448 122.069)"/>
    <path id="Path_106" data-name="Path 106" class="cls-9" d="M130.345,153.1H6.207A6.207,6.207,0,0,1,0,146.9V72.414a6.207,6.207,0,0,1,6.207-6.207H130.345a6.207,6.207,0,0,1,6.207,6.207V146.9A6.207,6.207,0,0,1,130.345,153.1Z"/>
    <g id="Group_5" data-name="Group 5" transform="translate(15.517 112.758)">
      <path id="Path_107" data-name="Path 107" class="cls-10" d="M126.69,204.827h15.517a3.1,3.1,0,0,0,3.1-3.1h0a3.1,3.1,0,0,0-3.1-3.1H126.69a3.1,3.1,0,0,0-3.1,3.1h0A3.1,3.1,0,0,0,126.69,204.827Z" transform="translate(-95.655 -198.62)"/>
      <path id="Path_108" data-name="Path 108" class="cls-10" d="M285.586,204.827H301.1a3.1,3.1,0,0,0,3.1-3.1h0a3.1,3.1,0,0,0-3.1-3.1H285.586a3.1,3.1,0,0,0-3.1,3.1h0A3.1,3.1,0,0,0,285.586,204.827Z" transform="translate(-198.689 -198.62)"/>
      <path id="Path_109" data-name="Path 109" class="cls-10" d="M47.242,204.827H62.759a3.1,3.1,0,0,0,3.1-3.1h0a3.1,3.1,0,0,0-3.1-3.1H47.242a3.1,3.1,0,0,0-3.1,3.1h0A3.1,3.1,0,0,0,47.242,204.827Z" transform="translate(-44.138 -198.62)"/>
      <path id="Path_110" data-name="Path 110" class="cls-10" d="M206.138,204.827h15.517a3.1,3.1,0,0,0,3.1-3.1h0a3.1,3.1,0,0,0-3.1-3.1H206.138a3.1,3.1,0,0,0-3.1,3.1h0A3.1,3.1,0,0,0,206.138,204.827Z" transform="translate(-147.172 -198.62)"/>
    </g>
    <g id="Group_6" data-name="Group 6" transform="translate(52.759 75.517)">
      <path id="Path_111" data-name="Path 111" class="cls-11" d="M153.173,98.9h43.448a3.1,3.1,0,0,0,3.1-3.1h0a3.1,3.1,0,0,0-3.1-3.1H153.173a3.1,3.1,0,0,0-3.1,3.1h0A3.1,3.1,0,0,0,153.173,98.9Z" transform="translate(-150.069 -92.689)"/>
      <path id="Path_112" data-name="Path 112" class="cls-11" d="M206.138,134.206h24.828a3.1,3.1,0,0,0,3.1-3.1h0a3.1,3.1,0,0,0-3.1-3.1H206.138a3.1,3.1,0,0,0-3.1,3.1h0A3.1,3.1,0,0,0,206.138,134.206Z" transform="translate(-184.413 -115.585)"/>
    </g>
    <g id="Group_7" data-name="Group 7" transform="translate(27.931 125.172)">
      <path id="Path_113" data-name="Path 113" class="cls-10" d="M206.138,275.448h12.414a3.1,3.1,0,0,0,3.1-3.1h0a3.1,3.1,0,0,0-3.1-3.1H206.138a3.1,3.1,0,0,0-3.1,3.1h0A3.1,3.1,0,0,0,206.138,275.448Z" transform="translate(-159.586 -256.827)"/>
      <path id="Path_114" data-name="Path 114" class="cls-10" d="M232.621,240.137h3.1a3.1,3.1,0,0,0,3.1-3.1h0a3.1,3.1,0,0,0-3.1-3.1h-3.1a3.1,3.1,0,0,0-3.1,3.1h0A3.1,3.1,0,0,0,232.621,240.137Z" transform="translate(-176.758 -233.93)"/>
      <path id="Path_115" data-name="Path 115" class="cls-10" d="M188.483,240.137h3.1a3.1,3.1,0,0,0,3.1-3.1h0a3.1,3.1,0,0,0-3.1-3.1h-3.1a3.1,3.1,0,0,0-3.1,3.1h0A3.1,3.1,0,0,0,188.483,240.137Z" transform="translate(-148.138 -233.93)"/>
      <path id="Path_116" data-name="Path 116" class="cls-10" d="M82.552,275.448h31.035a3.1,3.1,0,0,0,3.1-3.1h0a3.1,3.1,0,0,0-3.1-3.1H82.552a3.1,3.1,0,0,0-3.1,3.1h0A3.1,3.1,0,0,0,82.552,275.448Z" transform="translate(-79.448 -256.827)"/>
    </g>
    <ellipse id="Ellipse_3" data-name="Ellipse 3" class="cls-4" cx="9.31" cy="9.31" rx="9.31" ry="9.31" transform="translate(96.207 125.172)"/>
    <ellipse id="Ellipse_4" data-name="Ellipse 4" class="cls-5" cx="9.31" cy="9.31" rx="9.31" ry="9.31" transform="translate(108.62 125.172)"/>
    <path id="Path_117" data-name="Path 117" class="cls-6" d="M308.966,247.7a9.251,9.251,0,0,0,3.1,6.894,9.208,9.208,0,0,0,0-13.788A9.249,9.249,0,0,0,308.966,247.7Z" transform="translate(-200.345 -113.216)"/>
    <path id="Path_118" data-name="Path 118" class="cls-12" d="M62.759,152.345H47.242a3.1,3.1,0,0,1-3.1-3.1v-9.31a3.1,3.1,0,0,1,3.1-3.1H62.759a3.1,3.1,0,0,1,3.1,3.1v9.31A3.1,3.1,0,0,1,62.759,152.345Z" transform="translate(-28.621 -45.793)"/>
    <path id="Path_119" data-name="Path 119" class="cls-5" d="M77.31,143.034v-3.1a3.1,3.1,0,0,0-3.1-3.1H61.793v15.517H71.1v-6.207a3.1,3.1,0,0,1,3.1-3.1h3.1Z" transform="translate(-40.069 -45.793)"/>
    <ellipse id="Ellipse_5" data-name="Ellipse 5" class="cls-4" cx="9.31" cy="9.31" rx="9.31" ry="9.31" transform="translate(108.62 75.517)"/>
  </g>
</svg>
