<?xml version="1.0" encoding="utf-8"?>
<!-- Generator: Adobe Illustrator 22.0.1, SVG Export Plug-In . SVG Version: 6.00 Build 0)  -->
<svg version="1.1" id="Layer_1" xmlns="http://www.w3.org/2000/svg" xmlns:xlink="http://www.w3.org/1999/xlink" x="0px" y="0px"
	 viewBox="0 0 594.2862 86.5009" style="enable-background:new 0 0 594.2862 86.5009;" xml:space="preserve">
<style type="text/css">
	.st0{fill:#EAB000;}
</style>
<g>
	<g>
		<path class="st0" d="M27.6595,32.8969c2.2925-0.9831,4.0912-1.3887,5.4799-1.3887c13.3404,0,24.4721,11.0479,24.4721,25.1201
			c0,17.4315-14.4866,29.8726-31.0188,29.8726c-5.2374,0-11.5373-1.1462-18.5734-4.2587v-66.12c0-7.5299-0.41-8.3499-8.0192-9.0861
			V4.1749C5.7268,3.4387,13.746,1.6356,18.5734,0v36.7456L27.6595,32.8969z M18.5734,71.0311c0,1.8031,0.2469,3.0287,0.7362,4.0912
			c0.82,2.4556,4.4218,6.6305,10.4748,6.6305c9.6592,0,16.0428-7.9399,16.0428-21.9327c0-13.8297-8.5923-21.439-18.2515-21.439
			c-3.2712,0-6.7099,0.9831-9.0023,2.0456C18.5734,40.4267,18.5734,71.0311,18.5734,71.0311z"/>
	</g>
	<g>
		<path class="st0" d="M95.2519,31.5082c15.5491,0,27.007,12.0266,27.007,26.5132c0,19.314-14.7291,28.4795-27.0864,28.4795
			c-17.4315,0-27.5801-13.0935-27.5801-26.2708c0-19.5565,16.0384-28.7219,27.5801-28.7219
			C95.1725,31.5082,95.2519,31.5082,95.2519,31.5082z M93.7001,35.5156c-7.0405,0-13.5873,7.1199-13.5873,20.6234
			c0,15.1391,6.5468,26.187,16.3691,26.187c7.0361,0,13.336-4.748,13.336-21.5227c0-14.3235-5.7268-25.2877-15.9547-25.2877
			C93.8632,35.5156,93.7001,35.5156,93.7001,35.5156z"/>
	</g>
	<g>
		<path class="st0" d="M156.3064,85.1078V81.916c5.0743-0.7362,6.1367-1.7194,4.0912-4.9112l-8.8392-13.4991
			c-2.698,4.0912-5.4843,8.5086-7.6092,12.1897c-2.3762,3.9281-2.0456,5.2374,4.0074,6.2205v3.1918h-22.8321v-3.1918
			c7.5299-1.0625,8.923-2.0456,13.6666-7.7723c3.5181-4.1749,6.7099-8.8392,10.3954-14.0766l-10.7217-16.2853
			c-3.6812-5.7268-5.1536-6.7936-11.9473-7.693v-3.1918h25.2877v3.1918c-5.1581,0.7362-5.5636,1.7987-3.3549,5.1536l6.9523,10.6423
			c2.4556-3.7649,4.9112-7.283,6.8774-10.8848c2.2087-3.6018,1.3093-4.1749-3.9281-4.9112v-3.1918h22.5852v3.1918
			c-7.5299,0.8994-9.0023,1.4725-13.5035,6.3836c-2.5349,2.7818-5.4005,6.9567-9.5754,12.6835l12.1941,17.9209
			c4.4218,6.5468,6.0574,7.7767,13.2566,8.8392v3.1918h-27.0025V85.1078z"/>
	</g>
	<g>
		<path class="st0" d="M247.2203,31.5082c15.5491,0,27.007,12.0266,27.007,26.5132c0,19.314-14.7291,28.4795-27.0864,28.4795
			c-17.4315,0-27.5801-13.0935-27.5801-26.2708c0-19.5565,16.0428-28.7219,27.5801-28.7219
			C247.1409,31.5082,247.2203,31.5082,247.2203,31.5082z M245.6685,35.5156c-7.0405,0-13.5873,7.1199-13.5873,20.6234
			c0,15.1391,6.5468,26.187,16.3691,26.187c7.0361,0,13.3404-4.748,13.3404-21.5227c0-14.3235-5.7311-25.2877-15.9591-25.2877
			C245.8316,35.5156,245.6685,35.5156,245.6685,35.5156z"/>
	</g>
	<g>
		<path class="st0" d="M289.3664,32.8969v-2.6981c0-3.8487,0.4938-7.0405,1.3094-9.6592c0.82-2.6981,2.9493-8.5086,9.6592-14.0766
			c4.2543-3.7605,8.5923-5.8899,13.5829-6.463c4.338,0.0838,7.7767,1.7987,9.8223,4.0912c1.3094,1.3931,1.3887,3.0287,0.6525,4.5849
			c-0.4893,0.9787-1.3094,1.9618-2.4556,2.8612c-1.3094,0.9831-2.3718,0.9831-3.5181-0.2425
			c-2.4556-2.3762-6.0574-4.748-9.9854-4.748c-3.1081,0-4.9068,1.4725-6.2161,3.6018c-1.3931,2.1249-2.6187,7.693-2.3763,17.7578
			v4.9905h14.4029c0.7362,1.0625,0.1675,4.1749-1.3094,4.9905h-13.0935v33.88c0,8.8392,0.9831,9.2492,10.4748,10.2323v3.1081
			h-29.6213V81.916c7.693-0.7362,8.6717-1.4725,8.6717-9.3286v-34.7h-8.5923l-0.5731-1.3887l3.4387-3.6018
			C283.6396,32.8969,289.3664,32.8969,289.3664,32.8969z"/>
	</g>
	<g>
		<path class="st0" d="M370.0567,44.4341c4.0118-6.5467,9.0023-12.926,14.6497-12.926c4.4174,0,7.3667,3.1918,7.3667,6.1368
			c0,2.7818-1.64,5.2374-4.2587,6.463c-1.4725,0.5731-2.5349,0.3262-3.2712-0.3262c-1.8825-1.7193-3.2756-2.4556-5.3212-2.4556
			c-3.1081,0-6.7936,3.5181-9.4123,9.9017v21.3596c0,7.8561,0.5731,8.5923,10.0692,9.3286v3.1918h-29.0526V81.916
			c7.3667-0.7362,8.4292-1.4725,8.4292-9.3286V47.7935c0-7.6136-0.6569-8.103-7.4461-9.0861v-2.7025
			c6.053-0.9787,11.7841-2.3718,18.0003-4.9068v13.336C369.8097,44.4341,370.0567,44.4341,370.0567,44.4341z"/>
	</g>
	<g>
		<path class="st0" d="M423.4932,31.5082c15.5491,0,27.007,12.0266,27.007,26.5132c0,19.314-14.7291,28.4795-27.0864,28.4795
			c-17.4315,0-27.5801-13.0935-27.5801-26.2708c0-19.5565,16.0428-28.7219,27.5801-28.7219
			C423.4138,31.5082,423.4932,31.5082,423.4932,31.5082z M421.9414,35.5156c-7.0405,0-13.5873,7.1199-13.5873,20.6234
			c0,15.1391,6.5468,26.187,16.3691,26.187c7.0361,0,13.3404-4.748,13.3404-21.5227c0-14.3235-5.7312-25.2877-15.9591-25.2877
			C422.1045,35.5156,421.9414,35.5156,421.9414,35.5156z"/>
	</g>
	<g>
		<path class="st0" d="M490.8432,47.4628c-2.3718-7.0361-6.6305-12.0266-12.6042-12.0266c-4.4174,0-7.5255,3.2712-7.5255,7.9355
			c0,4.9112,4.5805,7.7767,10.0648,9.9017c9.2448,3.6812,15.5491,8.0192,15.5491,16.4484c0,11.211-10.3117,16.7791-20.3765,16.7791
			c-6.3043,0-12.031-2.2131-14.0766-3.9281c-0.82-1.5562-1.9662-9.9854-2.1293-14.7335l3.3549-0.4894
			c2.2925,8.0192,7.7768,15.1391,14.976,15.1391c4.4218,0,8.3499-3.3549,8.3499-8.103c0-4.9068-3.1918-7.6092-9.4123-10.391
			c-7.0361-3.1918-15.4653-7.283-15.4653-16.7747c0-8.513,7.3623-15.7122,18.8203-15.7122c5.2374,0,8.513,1.0625,10.9642,2.1249
			c1.0669,2.6187,2.5393,9.9854,2.7862,12.8466L490.8432,47.4628z"/>
	</g>
	<g>
		<path class="st0" d="M549.6008,74.4698c-7.8561,9.9017-16.6115,12.031-20.5396,12.031c-14.976,0-23.8152-12.031-23.8152-25.3714
			c0-7.9355,2.8656-15.1391,7.7768-20.4558c5.2374-5.7312,11.8635-9.1654,18.3309-9.1654h0.0793
			c10.3954,0,18.6616,8.9186,18.6616,18.4103c0,2.2925-0.6569,3.3549-2.8656,3.8487c-2.2087,0.3262-17.4315,1.5518-31.5081,2.0456
			c0.2469,15.4653,9.3329,22.0121,17.7578,22.0121c4.9949,0,9.6592-1.8825,14.0767-5.9736L549.6008,74.4698z M528.4881,36.0049
			c-5.2374,0-10.4749,4.6687-12.1942,14.6497c6.4673,0,12.9304,0,19.724-0.2425c2.1293-0.0838,2.8656-0.7406,2.8656-2.2925
			c0-6.3043-3.9281-12.1148-10.3117-12.1148L528.4881,36.0049L528.4881,36.0049z"/>
	</g>
	<g>
		<path class="st0" d="M588.8019,47.4628c-2.3718-7.0361-6.6305-12.0266-12.6041-12.0266c-4.4174,0-7.5255,3.2712-7.5255,7.9355
			c0,4.9112,4.5805,7.7767,10.0648,9.9017c9.2448,3.6812,15.5491,8.0192,15.5491,16.4484c0,11.211-10.3116,16.7791-20.3765,16.7791
			c-6.3043,0-12.031-2.2131-14.0766-3.9281c-0.82-1.5562-1.9662-9.9854-2.1293-14.7335l3.3549-0.4894
			c2.2925,8.0192,7.7767,15.1391,14.976,15.1391c4.4218,0,8.3499-3.3549,8.3499-8.103c0-4.9068-3.1918-7.6092-9.4123-10.391
			c-7.0361-3.1918-15.4653-7.283-15.4653-16.7747c0-8.513,7.3623-15.7122,18.8203-15.7122c5.2374,0,8.513,1.0625,10.9642,2.1249
			c1.0668,2.6187,2.5393,9.9854,2.7862,12.8466L588.8019,47.4628z"/>
	</g>
</g>
</svg>
