<svg xmlns="http://www.w3.org/2000/svg" viewBox="1770 2305 180 128.572">
  <defs>
    <style>
      .cls-1 {
        fill: #56b46f;
      }

      .cls-2 {
        fill: #74be86;
      }

      .cls-3 {
        fill: #4d8157;
      }

      .cls-4 {
        fill: #eaead7;
      }

      .cls-5 {
        fill: #83c38e;
      }
    </style>
  </defs>
  <g id="money-icon" transform="translate(1770 2297)">
    <rect id="XMLID_115_" class="cls-1" width="180" height="102.857" transform="translate(0 33.714)"/>
    <path id="XMLID_114_" class="cls-2" d="M162.714,24.857H2V12Z" transform="translate(4.429 8.857)"/>
    <path id="XMLID_79_" class="cls-3" d="M98.571,60.786A41.786,41.786,0,1,1,56.786,19,41.784,41.784,0,0,1,98.571,60.786" transform="translate(33.214 24.357)"/>
    <path id="XMLID_112_" class="cls-4" d="M56.731,91.714a41.7,41.7,0,0,1,0-70.714H24.205c.048.53.08,1.064.08,1.607A17.679,17.679,0,0,1,6.607,40.286c-.543,0-1.077-.032-1.607-.08v32.3c.53-.048,1.064-.08,1.607-.08A17.679,17.679,0,0,1,24.286,90.107c0,.543-.032,1.077-.08,1.607Z" transform="translate(11.071 28.786)"/>
    <path id="XMLID_111_" class="cls-4" d="M85.03,40.286A17.677,17.677,0,0,1,67.351,22.607c0-.543.032-1.077.08-1.607H34.906a41.7,41.7,0,0,1,0,70.714H67.431c-.048-.53-.08-1.064-.08-1.607A17.677,17.677,0,0,1,85.03,72.429c.543,0,1.077.032,1.607.08v-32.3c-.53.048-1.064.08-1.607.08" transform="translate(77.292 28.786)"/>
    <path id="XMLID_110_" class="cls-4" d="M11.036,35.071a8.036,8.036,0,1,1,8.036-8.036,8.043,8.043,0,0,1-8.036,8.036" transform="translate(6.643 24.357)"/>
    <path id="XMLID_109_" class="cls-4" d="M56.036,35.071a8.036,8.036,0,1,1,8.036-8.036,8.043,8.043,0,0,1-8.036,8.036" transform="translate(106.286 24.357)"/>
    <path id="XMLID_108_" class="cls-4" d="M11.036,56.071a8.036,8.036,0,1,1,8.036-8.036,8.043,8.043,0,0,1-8.036,8.036" transform="translate(6.643 70.857)"/>
    <path id="XMLID_107_" class="cls-4" d="M56.036,56.071a8.036,8.036,0,1,1,8.036-8.036,8.043,8.043,0,0,1-8.036,8.036" transform="translate(106.286 70.857)"/>
    <path id="XMLID_106_" class="cls-5" d="M5,8V21.629L156.071,33.714h9.643Z" transform="translate(11.071)"/>
    <path id="XMLID_105_" class="cls-4" d="M61.964,58a5.594,5.594,0,0,0,3.96-5.323v-2.8a5.59,5.59,0,0,0-3.015-4.934c-1.234-10.524-8.19-14.782-19.372-14.782-.527,0-1.048.019-1.556.061a16.8,16.8,0,0,1-10.806-2.542,14.046,14.046,0,0,1-3.2-2.816.559.559,0,0,0-1,.408c.113.977.276,2.121.527,3.369.923,4.645.37,3.966-1.427,8.351a29.009,29.009,0,0,0-1.932,7.962,5.6,5.6,0,0,0-3,4.924v2.8A5.6,5.6,0,0,0,25.109,58c1.514,5.664,4.622,10.193,10.032,12.523v3.2a2.153,2.153,0,0,1-1.2,1.929l-10.8,5.323a9.025,9.025,0,0,0-2.395,1.974,41.7,41.7,0,0,0,45.878.463,9.158,9.158,0,0,0-2.976-2.366l-10.54-5.387a2.146,2.146,0,0,1-1.173-1.913V70.525c5.41-2.33,8.518-6.859,10.032-12.523" transform="translate(45.933 36.864)"/>
  </g>
</svg>
