<svg xmlns="http://www.w3.org/2000/svg" viewBox="-20575 2919 30.068 30">
  <defs>
    <style>
      .cls-1 {
        fill: #151515;
      }
    </style>
  </defs>
  <g id="phone-icon" transform="translate(-20575 2918.606)">
    <g id="Group_2" data-name="Group 2" transform="translate(0 0.394)">
      <g id="Group_1" data-name="Group 1" transform="translate(0 0)">
        <path id="Path_1" data-name="Path 1" class="cls-1" d="M29.394,24.122,24.75,19.478a2.421,2.421,0,0,0-3.414.064L19,21.881l-.462-.257a23.281,23.281,0,0,1-5.627-4.07A23.41,23.41,0,0,1,8.83,11.918c-.087-.157-.17-.308-.252-.451L10.149,9.9l.772-.773a2.419,2.419,0,0,0,.062-3.414L6.339,1.067a2.419,2.419,0,0,0-3.414.064L1.617,2.448l.036.036a7.568,7.568,0,0,0-1.078,1.9,7.886,7.886,0,0,0-.48,1.929C-.519,11.4,1.8,16.044,8.108,22.348c8.714,8.713,15.736,8.055,16.039,8.023a7.846,7.846,0,0,0,1.935-.486,7.542,7.542,0,0,0,1.9-1.074l.029.025,1.326-1.3A2.423,2.423,0,0,0,29.394,24.122Z" transform="translate(0 -0.394)"/>
      </g>
    </g>
  </g>
</svg>
