<svg xmlns="http://www.w3.org/2000/svg" xmlns:xlink="http://www.w3.org/1999/xlink" viewBox="4412.55 2289.3 223.958 62.811">
  <defs>
    <style>
      .cls-1 {
        fill: #d8a959;
      }

      .cls-2 {
        filter: url(#signature);
      }
    </style>
    <filter id="signature" x="4412.55" y="2289.3" width="223.958" height="62.811" filterUnits="userSpaceOnUse">
      <feOffset dy="1" input="SourceAlpha"/>
      <feGaussianBlur stdDeviation="1.5" result="blur"/>
      <feFlood flood-opacity="0.161"/>
      <feComposite operator="in" in2="blur"/>
      <feComposite in="SourceGraphic"/>
    </filter>
  </defs>
  <g class="cls-2" transform="matrix(1, 0, 0, 1, 0, 0)">
    <path id="signature-2" data-name="signature" class="cls-1" d="M16.644-10.773a7.3,7.3,0,0,0,2.223-.741,15.391,15.391,0,0,0,2.223-1.539,2.9,2.9,0,0,0,1.425-1.938.62.62,0,0,0-.057-.285.624.624,0,0,0-.627.057.687.687,0,0,0-.285.285,6.051,6.051,0,0,1-.912,1.2,6.561,6.561,0,0,1-1.938,1.2,10.753,10.753,0,0,1-2.964,1.026,2.417,2.417,0,0,1-1.083.057c-.513-1.311-.855-2.508-1.368-3.648a3.808,3.808,0,0,0-2.451-2.223A1.663,1.663,0,0,0,8.778-16.3a3.94,3.94,0,0,0,0,2.907A4.305,4.305,0,0,0,11.8-10.887a6.542,6.542,0,0,1,1.6.4c.342,2.907-1.71,7.353-3.7,9.348A7.4,7.4,0,0,1,7.353.456,2.58,2.58,0,0,1,4.047-.285a5.5,5.5,0,0,1-.969-2.109c-.4-1.425.171-3.99.228-5.472a5.934,5.934,0,0,1,.342-.912c.4-.741.8-1.482,1.2-2.166.171-.342.342-.627.513-.912,1.824-3.021,3.762-5.985,5.358-9.12.741-1.482,1.653-2.907,2.451-4.389,1.539-2.964,2.907-5.985,4.218-9.063a29.42,29.42,0,0,0,1.653-5.928A7.267,7.267,0,0,0,19.1-41.5a4,4,0,0,0-1.539-3.135,1.681,1.681,0,0,0-2.28-.228c-.912.456-1.767.969-2.679,1.482a3.428,3.428,0,0,0-.741.513,33.583,33.583,0,0,0-5.814,6.84,42.315,42.315,0,0,0-3.363,7.3C2-26.79,1.653-24.738,1.026-22.8A32.671,32.671,0,0,0-.057-16.188c-.171,1.482-.342,2.964-.4,4.446s-.741,3.534-.4,4.959c.171.684.228,1.938.4,2.622a.824.824,0,0,1,.114.4C.4-1.311,1.767.912,4.389,1.482A5.563,5.563,0,0,0,9.234.285,15.283,15.283,0,0,0,14.307-9.69c.057-.4.057-.57.4-.684a4.05,4.05,0,0,1,1.14-.228C16.131-10.659,16.416-10.716,16.644-10.773Zm5.13-3.819-.057.057v-.057ZM.969-17.1l-.114-.057L1.2-19.722A3.469,3.469,0,0,1,.969-17.1Zm.969-4.674a.209.209,0,0,1-.171-.057l.171-.855a.209.209,0,0,0,.171.057Zm4.788-12.6v.057h0Zm0,.114c0,.171.057.4-.171.57C6.612-33.915,6.669-34.086,6.726-34.257Zm-2.109,4.9h.057a.62.62,0,0,1-.057.285H4.56A2.469,2.469,0,0,1,4.617-29.355Zm-.4,7.239-.057.057v-.057Zm-.57,10.6c.57-2.907,1.14-5.757,1.71-8.664A82.921,82.921,0,0,1,9.177-33.516a38.363,38.363,0,0,1,2.166-4.674,21.919,21.919,0,0,1,3.021-4.218,8.892,8.892,0,0,1,1.6-1.311,1.109,1.109,0,0,1,1.653.342,3.357,3.357,0,0,1,.627,2.052c-.057.627-.114,1.2-.228,1.824a36.117,36.117,0,0,1-2.166,6.783A85.917,85.917,0,0,1,10.26-21.774c-.627.969-1.14,2.052-1.71,3.078-1.311,2.166-2.622,4.275-3.876,6.441-.285.456-.57.969-.855,1.425H3.648A2.747,2.747,0,0,1,3.648-11.514Zm-.627-9.177a.2.2,0,0,1-.057-.114c.057,0,.057-.057.114-.114v.114C3.078-20.748,3.021-20.748,3.021-20.691ZM3.192-15.9a2.516,2.516,0,0,1,0,1.71Zm10.26,4.332a3.552,3.552,0,0,1-3.99-3.021,2.06,2.06,0,0,1,.8-1.995,2.346,2.346,0,0,1,1.995,1.425,31.269,31.269,0,0,1,1.2,2.907A2.747,2.747,0,0,1,13.452-11.571ZM37.335-11.8c.057-.057.114-.171.171-.228a4.377,4.377,0,0,0,.855-.912,1.192,1.192,0,0,1,.228-.342c0-.057.057-.114.114-.171a1.537,1.537,0,0,0,.4-.456c.057-.114.171-.171.285-.285a1.877,1.877,0,0,0,.4-.741,2.025,2.025,0,0,0,.114-.57.792.792,0,0,0-.114-.627c-.057-.057-.057-.057-.114-.057,0-.057-.057,0-.114,0-.171.114-.228.4-.342.57a3.232,3.232,0,0,0-.456.741c-.285.4-.513.8-.8,1.14a21.037,21.037,0,0,1-2.337,2.166,7.616,7.616,0,0,1-1.71,1.2,7.394,7.394,0,0,1-1.824.8c-.057,0-.057,0-.057.057H31.92c.057-.114,0-.342.057-.513a1.578,1.578,0,0,1,.057-.513,5.616,5.616,0,0,1,.114-.969,9.3,9.3,0,0,0-.228-3.933,6.5,6.5,0,0,0-3.135-4.047,4.079,4.079,0,0,0-3.021-.513,4.14,4.14,0,0,0-2.451,1.653,1.213,1.213,0,0,1-.684.627,5.155,5.155,0,0,0-2.85,2.28,20.633,20.633,0,0,0-2.907,6.9,2.663,2.663,0,0,0-.171.969c.057.342.057.684.114,1.083A8.707,8.707,0,0,0,19.551-.57a2.319,2.319,0,0,0,1.083.741,5.557,5.557,0,0,1,1.254.456c2.052.8,4.218-.513,5.757-1.767a7.58,7.58,0,0,0,2.166-3.135C30.5-5.7,31.122-7.068,31.749-8.436c.57-.228,1.083-.342,1.539-.57.285-.171.513-.285.8-.456.57-.342,1.14-.627,1.71-1.026.228-.228.513-.4.741-.627l.342-.342a1.192,1.192,0,0,1,.342-.228C37.278-11.742,37.278-11.8,37.335-11.8Zm-16.758,0c.228.285,0,.4-.057.57,0,.171-.114.285-.171.456A1.163,1.163,0,0,1,20.577-11.8Zm-.684,1.083h0v.627h-.057C19.836-10.317,19.893-10.488,19.893-10.716Zm-.684.57c-.285-.4-.285-.4.171-.627C19.323-10.545,19.266-10.374,19.209-10.146ZM30.381-7.7C29.7-6.27,29.07-4.788,28.272-3.363A6.158,6.158,0,0,1,25.65-1.026c-.627.285-1.2.513-1.824.8a1.118,1.118,0,0,1-.855.057.2.2,0,0,1-.114-.057,1.216,1.216,0,0,1-.684-.4,3.115,3.115,0,0,1-1.026-1.767,11.737,11.737,0,0,1,.969-8.835c.285-.456.57-.912.912-1.482C25.08-10.2,27.417-8.55,30.552-8.55A7.479,7.479,0,0,0,30.381-7.7Zm.513-1.824c0,.057,0,.114-.114.114-.057.057-.228,0-.285,0a8.632,8.632,0,0,1-2.736-.513A7.8,7.8,0,0,1,23.712-13.4c.057-.456.513-.684.855-.912.285-.171.627-.342.969-.513.741-.456.741-.855.114-1.767a3.623,3.623,0,0,0-1.539-1.083c.342-1.482,2.964-2.166,4.56-1.083a5.7,5.7,0,0,1,2.451,3.42,9.365,9.365,0,0,1,.171,3.762,12.344,12.344,0,0,0-.228,1.425c-.057.228-.057.4-.114.57Zm30.1.57-.057-.057a.5.5,0,0,0-.513.285c-.114.228-.285.456-.4.684-.285.456-.627.855-.912,1.311a20.251,20.251,0,0,1-4.161,4.389A18.72,18.72,0,0,1,53.181-1.2a11.657,11.657,0,0,1-1.767.741c-.513.171-1.026.456-1.482.285A7.239,7.239,0,0,1,47.937-4.1c-.456-2-.228-4.047-.456-6.042a1.623,1.623,0,0,1,.342-.8,38.123,38.123,0,0,1,4.56-5.016,4.635,4.635,0,0,1,2.85-1.254c.4.8.4.8,1.368,1.026.4-.342.228-.684.114-1.026a.793.793,0,0,0-.627-.57,3.723,3.723,0,0,0-1.938,0A7.246,7.246,0,0,0,51.7-16.3c-1.311,1.14-2.337,2.565-3.534,3.819a2.988,2.988,0,0,1-.627.57c-.114-.114-.171-.171-.171-.228a2.509,2.509,0,0,1-.114-.57,6.444,6.444,0,0,0-1.311-3.363,4.731,4.731,0,0,0-1.653-1.368,4.011,4.011,0,0,0-2.166-.057,4.827,4.827,0,0,0-.969.228,5.012,5.012,0,0,0-.57.342,10.533,10.533,0,0,0-2.052,2.166,9.284,9.284,0,0,0-.627.969c-.171.285-.513.627-.456.912.171.114.4.171.513.057h.057a3.133,3.133,0,0,0,.741-.969,12.519,12.519,0,0,1,.8-1.026,3.47,3.47,0,0,1,.912-.912c.114-.057.285-.114.4-.171.513-.057.8.513,1.026.855a14.845,14.845,0,0,1,.57,1.425,10.247,10.247,0,0,1,.456,3.477,18.057,18.057,0,0,0,.114,2.508,3.646,3.646,0,0,1-.855,2.85C40.641-2.679,39.1-.57,37.506,1.539a11.091,11.091,0,0,1-2.793,2.622c-.4-.057-.684-.057-.969-.114-.285.342-.171.57.057.741a1.307,1.307,0,0,0,1.653-.171,13.623,13.623,0,0,0,2.052-1.995c1.6-1.938,3.078-3.933,4.617-5.928a5.025,5.025,0,0,1,1.14-1.368c.114.4.228.684.342,1.026.342.855.684,1.71,1.083,2.565A2.677,2.677,0,0,0,46.113.228,6.344,6.344,0,0,0,51.585.4c.684-.285,1.368-.513,2-.8a2.212,2.212,0,0,0,.627-.342c.969-.8,1.938-1.6,2.85-2.394a18.893,18.893,0,0,0,2.85-3.534,6.674,6.674,0,0,0,1.14-1.938C61.047-8.721,61.1-8.892,60.99-8.949ZM44-7.752H43.89v-.57H44Zm-.057-4.332a.919.919,0,0,0-.228-.4v-.4h0v.4C44-12.54,44.061-12.369,43.947-12.084Zm.228,6.27-.057-.057h.114Zm.114-2.508c-.057-.342-.114-.627-.228-1.083C44.4-8.892,44.4-8.892,44.289-8.322ZM44.4-13.68l-.057-.114.114.057Zm.285.57v.4l-.171-.342A.209.209,0,0,0,44.688-13.11Zm.171,3.42h-.228c0-.228-.057-.513-.057-.855C45.087-10.26,44.916-9.975,44.859-9.69ZM90.915-11.8c.057-.057.114-.171.171-.228a4.377,4.377,0,0,0,.855-.912,1.192,1.192,0,0,1,.228-.342c0-.057.057-.114.114-.171a1.537,1.537,0,0,0,.4-.456c.057-.114.171-.171.285-.285a1.877,1.877,0,0,0,.4-.741,2.025,2.025,0,0,0,.114-.57.791.791,0,0,0-.114-.627c-.057-.057-.057-.057-.114-.057,0-.057-.057,0-.114,0-.171.114-.228.4-.342.57a3.232,3.232,0,0,0-.456.741c-.285.4-.513.8-.8,1.14a21.038,21.038,0,0,1-2.337,2.166,7.616,7.616,0,0,1-1.71,1.2,7.394,7.394,0,0,1-1.824.8c-.057,0-.057,0-.057.057H85.5c.057-.114,0-.342.057-.513a1.578,1.578,0,0,1,.057-.513,5.616,5.616,0,0,1,.114-.969,9.3,9.3,0,0,0-.228-3.933,6.5,6.5,0,0,0-3.135-4.047,4.079,4.079,0,0,0-3.021-.513,4.14,4.14,0,0,0-2.451,1.653,1.213,1.213,0,0,1-.684.627,5.155,5.155,0,0,0-2.85,2.28,20.633,20.633,0,0,0-2.907,6.9,2.663,2.663,0,0,0-.171.969c.057.342.057.684.114,1.083A8.707,8.707,0,0,0,73.131-.57a2.319,2.319,0,0,0,1.083.741,5.557,5.557,0,0,1,1.254.456c2.052.8,4.218-.513,5.757-1.767a7.58,7.58,0,0,0,2.166-3.135C84.075-5.7,84.7-7.068,85.329-8.436c.57-.228,1.083-.342,1.539-.57.285-.171.513-.285.8-.456.57-.342,1.14-.627,1.71-1.026.228-.228.513-.4.741-.627l.342-.342a1.192,1.192,0,0,1,.342-.228C90.858-11.742,90.858-11.8,90.915-11.8Zm-16.758,0c.228.285,0,.4-.057.57,0,.171-.114.285-.171.456A1.163,1.163,0,0,1,74.157-11.8Zm-.684,1.083h0v.627h-.057C73.416-10.317,73.473-10.488,73.473-10.716Zm-.684.57c-.285-.4-.285-.4.171-.627C72.9-10.545,72.846-10.374,72.789-10.146ZM83.961-7.7c-.684,1.425-1.311,2.907-2.109,4.332A6.158,6.158,0,0,1,79.23-1.026c-.627.285-1.2.513-1.824.8a1.118,1.118,0,0,1-.855.057.2.2,0,0,1-.114-.057,1.216,1.216,0,0,1-.684-.4,3.115,3.115,0,0,1-1.026-1.767,11.737,11.737,0,0,1,.969-8.835c.285-.456.57-.912.912-1.482C78.66-10.2,81-8.55,84.132-8.55A7.479,7.479,0,0,0,83.961-7.7Zm.513-1.824c0,.057,0,.114-.114.114-.057.057-.228,0-.285,0a8.632,8.632,0,0,1-2.736-.513A7.8,7.8,0,0,1,77.292-13.4c.057-.456.513-.684.855-.912.285-.171.627-.342.969-.513.741-.456.741-.855.114-1.767a3.623,3.623,0,0,0-1.539-1.083c.342-1.482,2.964-2.166,4.56-1.083a5.7,5.7,0,0,1,2.451,3.42,9.365,9.365,0,0,1,.171,3.762,12.344,12.344,0,0,0-.228,1.425c-.057.228-.057.4-.114.57Zm14.706-6.1A12.5,12.5,0,0,0,103.8-13.68a16.6,16.6,0,0,0,4.1.285c.171-.057.285-.057.456-.114a2.025,2.025,0,0,0,.513-.228,1.146,1.146,0,0,0,.456-.228.371.371,0,0,0,.114-.513c-.57.057-1.14.285-1.71.4a7.464,7.464,0,0,1-1.6,0c-.912-.171-1.824-.342-2.793-.513a9.629,9.629,0,0,1-3.819-1.71,1.42,1.42,0,0,1-.684-1.14c.057-.057,0-.171.057-.228a18.237,18.237,0,0,0,2.394-3.876c1.254-2.565,2.508-5.13,3.7-7.695a38.84,38.84,0,0,0,2.337-5.187c.4-1.482.969-2.907,1.254-4.446a5.818,5.818,0,0,0,0-2.622,1.971,1.971,0,0,0-1.368-1.653,4,4,0,0,0-2.451.057A10.628,10.628,0,0,0,99.807-38.7a36.446,36.446,0,0,0-2.736,5.358,71.092,71.092,0,0,0-3.135,8.436c-.456,1.425-.855,2.907-1.254,4.332A26.808,26.808,0,0,0,92-17.67c-.4,2.052-.8,4.1-1.14,6.156-.285,1.995-.456,3.99-.684,5.985v.513L90-3.477a.056.056,0,0,1,.057-.057c.057.114.114.114.114.171a3.763,3.763,0,0,1-.057.8,22.994,22.994,0,0,0,.855,7.638,5.549,5.549,0,0,0,1.6,2.736,2.772,2.772,0,0,0,3.192.513A3.413,3.413,0,0,0,97.3,7.011a15.359,15.359,0,0,0,1.653-3.7,32.252,32.252,0,0,0,.912-4.674c.114-1.938.342-3.819.285-5.7a39.383,39.383,0,0,0-.912-7.7A3.049,3.049,0,0,1,99.18-15.618ZM91.827-2.394H91.77l-.057-.8a.056.056,0,0,1,.057-.057Zm6.9-28.5v.057c0-.057,0-.057-.057-.057Zm-.285.57c0,.171,0,.285-.171.342Zm-.228.4a1.757,1.757,0,0,0,.057.57C98.154-29.526,97.983-29.7,98.211-29.925Zm.057.627-.513.513C97.812-29.127,97.812-29.469,98.268-29.3Zm-.57,1.2c.057,0,.114.057.171.057l.057-.057a.268.268,0,0,1,.057.456c-.057.057-.114.114-.114.171-.057-.057-.057-.114-.114-.171-.057,0-.114.057-.228.057Zm-.171.57a1.578,1.578,0,0,1-.057.513C97.413-27.189,97.242-27.36,97.527-27.531ZM95.361-14.478a46.029,46.029,0,0,1,1.083-5.586c.741-2.337,1.482-4.731,2.28-7.011.684-2.166,1.482-4.218,2.223-6.327a21.024,21.024,0,0,1,4.218-7.239c.285-.285.627-.57.912-.855a1.4,1.4,0,0,1,1.425-.456,2.474,2.474,0,0,1,.456,2.052,22.812,22.812,0,0,1-.741,3.42,41.6,41.6,0,0,1-1.767,4.674c-1.71,3.648-3.42,7.3-5.187,10.887a11.176,11.176,0,0,1-2.223,3.135,3.46,3.46,0,0,0-.4.57c-.684.912-1.311,1.824-2,2.793,0,.057-.114.057-.171.057Zm-3.192,1.71v.513a1.074,1.074,0,0,0-.114-.456C92.055-12.768,92.112-12.768,92.169-12.768Zm0,6.612-.057-.057a.209.209,0,0,1,.057-.171h.057C92.226-6.27,92.226-6.213,92.169-6.156Zm-.4-4.9c0-.114.057-.228.057-.342,0,.114.057.228.057.342Zm.4-1.083c-.114.171-.228.4-.342.57C91.884-11.8,91.827-12.084,92.169-12.141Zm7.068,1.881a36.829,36.829,0,0,1-.114,7.923,4.9,4.9,0,0,0-.057.912,18.456,18.456,0,0,1-1.938,7.182,5.413,5.413,0,0,1-.57.969,1.294,1.294,0,0,1-1.083.741,4.541,4.541,0,0,1-2.166-3.933,52.57,52.57,0,0,1,.912-11.571c.114-.627.171-1.254.228-1.881a6.857,6.857,0,0,1,1.026-2.907c.684-1.083,1.425-2.109,2.109-3.192a2.479,2.479,0,0,1,.4-.342,2.8,2.8,0,0,1,.456,1.254A34.355,34.355,0,0,1,99.237-10.26Zm40.641,2.679a.493.493,0,0,0-.171-.342c-.057-.057-.228-.114-.285,0-.057,0-.114.057-.171.114-.4.627-.855,1.254-1.254,1.938A26.614,26.614,0,0,1,133.038-.4a4.93,4.93,0,0,1-.57.4,1.288,1.288,0,0,1-1.482-.114,5.678,5.678,0,0,1-.627-.57,8.258,8.258,0,0,1,.57-3.306c.741-1.767,1.6-3.534,2.394-5.244A15.545,15.545,0,0,0,134.634-13a3.3,3.3,0,0,0-1.6-3.42,1.97,1.97,0,0,0-1.482-.4,3.689,3.689,0,0,1-1.368.057,2.666,2.666,0,0,0-1.6.513,6.727,6.727,0,0,1-2.622,1.083,2.2,2.2,0,0,1-1.482,0c.057-.285.114-.513.171-.8.228-.969.57-1.938.741-2.964a8.647,8.647,0,0,0-.114-3.819,2.42,2.42,0,0,0-3.648-1.6,4.463,4.463,0,0,0-1.14.912,4.915,4.915,0,0,0-1.2,2.907,2.934,2.934,0,0,0,.4,1.938c.342.57.741,1.083,1.026,1.653a6.415,6.415,0,0,0,2.223,2.394c.057.057.057.114.114.285a19.185,19.185,0,0,1-1.083,2.166c-.627.969-1.311,1.938-1.938,2.85a32.7,32.7,0,0,1-2,2.679c-.114.114-.171.228-.285.285,0,.057-.057.057-.057.114a.209.209,0,0,0,.057.171.43.43,0,0,0,.456.057c.114-.057.228-.171.342-.228l.228-.228a1.243,1.243,0,0,0,.285-.228,47.812,47.812,0,0,0,3.648-5.244c.171-.342.342-.627.513-.969a11.2,11.2,0,0,0,.741-1.425c.342.057.627.171.912.228a3.724,3.724,0,0,0,.8,0c.684-.228,1.311-.513,2-.8a10.953,10.953,0,0,1,2.394-.912,2.049,2.049,0,0,1,0,1.824c-.855,2.166-1.71,4.275-2.565,6.441-.57,1.482-1.14,2.964-1.6,4.5a3.967,3.967,0,0,0,.8,3.933,1.469,1.469,0,0,0,1.425.741c.285,0,.627.057.912.057a2.392,2.392,0,0,0,1.539-.228,2.687,2.687,0,0,1,.855-.342,4.675,4.675,0,0,0,2.622-1.482c.228-.228.456-.513.684-.741A22.612,22.612,0,0,0,139.08-6.27c.171-.228.285-.456.456-.684.057-.171.228-.228.285-.4a.343.343,0,0,0,.057-.228Zm-16.3-7.809a2.311,2.311,0,0,1-1.368-.969c-.57-.855-1.083-1.71-1.653-2.565a2.4,2.4,0,0,1-.285-1.881,12.379,12.379,0,0,1,.4-1.368,2.64,2.64,0,0,1,1.995-1.71,1.753,1.753,0,0,1,1.938,1.368,10.724,10.724,0,0,1-.057,4.047A10.173,10.173,0,0,1,123.576-15.39Zm4.788,7.866v0Zm-.456,3.135a.056.056,0,0,1,.057.057.056.056,0,0,1-.057-.057c.171-.114.057-.57.456-.57C128.193-4.788,128.307-4.389,127.908-4.389Zm.456-.627c-.114-.285-.171-.513.171-.684Zm.456-3.534v-.171h0a.209.209,0,0,0,.057.171v.114C128.877-8.493,128.82-8.493,128.82-8.55Zm0-.171c.114-.114.228-.171.342-.285C129.162-8.778,128.991-8.721,128.82-8.721Zm.342-.342c.057-.171.057-.4.114-.57C129.276-9.462,129.447-9.177,129.162-9.063Zm.114-.57c.228-.342.4-.627.57-.855C129.846-10.146,129.846-9.747,129.276-9.633Zm.627-1.026a.3.3,0,0,1,.114-.4A3.636,3.636,0,0,1,129.9-10.659Zm28.386-1.14c.057-.057.114-.171.171-.228a4.376,4.376,0,0,0,.855-.912,1.192,1.192,0,0,1,.228-.342c0-.057.057-.114.114-.171a1.537,1.537,0,0,0,.4-.456c.057-.114.171-.171.285-.285a1.877,1.877,0,0,0,.4-.741,2.025,2.025,0,0,0,.114-.57.791.791,0,0,0-.114-.627c-.057-.057-.057-.057-.114-.057,0-.057-.057,0-.114,0-.171.114-.228.4-.342.57a3.232,3.232,0,0,0-.456.741c-.285.4-.513.8-.8,1.14a21.036,21.036,0,0,1-2.337,2.166,7.616,7.616,0,0,1-1.71,1.2,7.394,7.394,0,0,1-1.824.8c-.057,0-.057,0-.057.057h-.114c.057-.114,0-.342.057-.513a1.578,1.578,0,0,1,.057-.513,5.617,5.617,0,0,1,.114-.969,9.3,9.3,0,0,0-.228-3.933,6.5,6.5,0,0,0-3.135-4.047,4.079,4.079,0,0,0-3.021-.513,4.14,4.14,0,0,0-2.451,1.653,1.213,1.213,0,0,1-.684.627,5.155,5.155,0,0,0-2.85,2.28,20.633,20.633,0,0,0-2.907,6.9,2.663,2.663,0,0,0-.171.969c.057.342.057.684.114,1.083A8.707,8.707,0,0,0,140.5-.57a2.319,2.319,0,0,0,1.083.741,5.557,5.557,0,0,1,1.254.456c2.052.8,4.218-.513,5.757-1.767a7.58,7.58,0,0,0,2.166-3.135c.684-1.425,1.311-2.793,1.938-4.161.57-.228,1.083-.342,1.539-.57.285-.171.513-.285.8-.456.57-.342,1.14-.627,1.71-1.026.228-.228.513-.4.741-.627l.342-.342a1.192,1.192,0,0,1,.342-.228C158.232-11.742,158.232-11.8,158.289-11.8Zm-16.758,0c.228.285,0,.4-.057.57,0,.171-.114.285-.171.456A1.163,1.163,0,0,1,141.531-11.8Zm-.684,1.083h0v.627h-.057C140.79-10.317,140.847-10.488,140.847-10.716Zm-.684.57c-.285-.4-.285-.4.171-.627C140.277-10.545,140.22-10.374,140.163-10.146ZM151.335-7.7c-.684,1.425-1.311,2.907-2.109,4.332A6.158,6.158,0,0,1,146.6-1.026c-.627.285-1.2.513-1.824.8a1.118,1.118,0,0,1-.855.057.2.2,0,0,1-.114-.057,1.216,1.216,0,0,1-.684-.4A3.114,3.114,0,0,1,142.1-2.394a11.737,11.737,0,0,1,.969-8.835c.285-.456.57-.912.912-1.482,2.052,2.508,4.389,4.161,7.524,4.161A7.481,7.481,0,0,0,151.335-7.7Zm.513-1.824c0,.057,0,.114-.114.114-.057.057-.228,0-.285,0a8.632,8.632,0,0,1-2.736-.513,7.8,7.8,0,0,1-4.047-3.477c.057-.456.513-.684.855-.912.285-.171.627-.342.969-.513.741-.456.741-.855.114-1.767a3.623,3.623,0,0,0-1.539-1.083c.342-1.482,2.964-2.166,4.56-1.083a5.7,5.7,0,0,1,2.451,3.42,9.365,9.365,0,0,1,.171,3.762,12.343,12.343,0,0,0-.228,1.425c-.057.228-.057.4-.114.57Zm24,1.824c.114-.57-.114-.912-.513-.513a28.371,28.371,0,0,1-7.068,6.555,2.167,2.167,0,0,1-1.482.57c-.057-.456-.171-.855-.228-1.254-.285-2.679-.741-5.358-1.254-7.98a18.2,18.2,0,0,1,.171-7.239c.4-.171.8-.342,1.14-.513a2.823,2.823,0,0,0,1.2-1.254,1.012,1.012,0,0,0-.4-1.482,3.04,3.04,0,0,0-2.508-.4,7.79,7.79,0,0,0-3.762,3.648c-.57.912-.456,1.938-.684,2.964-.228,1.14-.513,1.824-.057,2.565.228.8,2,10.773,2.166,11.628a4.863,4.863,0,0,1,0,.912,4.92,4.92,0,0,0-3.477,1.767,1.345,1.345,0,0,0-.4.912,2.586,2.586,0,0,0,1.653,2.223,3.6,3.6,0,0,0,2.451-.114,5.247,5.247,0,0,0,3.933-4.275A7.688,7.688,0,0,0,166.9,0a3.361,3.361,0,0,0,.456-.228C171.855-2.793,175.56-6.9,175.845-7.7ZM166.5-20.064c.285-.228.57-.171.741.228-.456.8-.456.8-1.482,1.2A1.632,1.632,0,0,1,166.5-20.064ZM161.025,4.56C160,4.389,160,4.332,159.543,3.192a3.2,3.2,0,0,1,2.907-1.71C162.45,2.793,162.393,3.99,161.025,4.56Zm1.653-11.97-.114.057c0-.285-.057-.513-.057-.741h.171Zm32.6-.912c-.057-.171-.171-.285-.285-.285a.7.7,0,0,0-.456.228c-1.425,1.881-1.653,2.337-3.192,4.275-.285.342-.8.8-1.083,1.14a6.572,6.572,0,0,1-1.368,1.14,18.263,18.263,0,0,1-2.223.912,4.114,4.114,0,0,1-2.337.456,3.95,3.95,0,0,1-1.14-.171,5.337,5.337,0,0,1-.912-.228c-3.078-1.14-3.363-4.617-2.793-7.41a14.9,14.9,0,0,0,.342-1.539c.228,0,.456.057.741.057.342,0,.741-.057,1.14-.057a21.073,21.073,0,0,0,2.736-.456,13.041,13.041,0,0,0,1.311-.57,9.547,9.547,0,0,0,2.964-2.679,3.691,3.691,0,0,0,1.026-2.679,3.456,3.456,0,0,0-1.482-2.28,6.516,6.516,0,0,0-1.653-.855,4.086,4.086,0,0,0-1.824-.285,8.489,8.489,0,0,0-3.078.8,13.1,13.1,0,0,0-2.451,1.425c-2.793,2.565-6.042,6.9-5.586,10.887a10.549,10.549,0,0,0,.4,2.337,6.206,6.206,0,0,0,1.881,3.021A8.607,8.607,0,0,0,179.265.513a15.606,15.606,0,0,0,2.85.4,20.124,20.124,0,0,0,2.622,0,2.014,2.014,0,0,0,.969-.228c.4-.114.855-.342,1.311-.456.57-.114.342-.228.855-.456a10.081,10.081,0,0,0,4.161-3.078c0-.114.228-.285.285-.342a28.574,28.574,0,0,0,2.223-3.135c.228-.4.627-.684.741-1.14A.487.487,0,0,0,195.282-8.322Zm-13.737-5.7a14.781,14.781,0,0,1,1.824-2.679,5.113,5.113,0,0,1,1.824-1.482,1.908,1.908,0,0,1,1.824.228c.171.114.4.285.57.4a2.35,2.35,0,0,1,.912,1.938,5.162,5.162,0,0,1-2.166,3.363,7.749,7.749,0,0,1-5.928,1.14A9.383,9.383,0,0,1,181.545-14.022Zm-1.767-1.6a.209.209,0,0,1,.171.057l-.228.57c-.057,0-.114-.057-.171-.057A5.913,5.913,0,0,1,179.778-15.618Zm-4.5,10.6c-.114-.342-.171-.684-.285-.969a.177.177,0,0,1,.114-.057,1.707,1.707,0,0,1,.228.456,1.578,1.578,0,0,1,.057.513A.177.177,0,0,1,175.275-5.016Zm3.762-9.519-.057-.057h.057ZM213.978-7.7c.114-.57-.114-.912-.513-.513A28.371,28.371,0,0,1,206.4-1.653a2.167,2.167,0,0,1-1.482.57c-.057-.456-.171-.855-.228-1.254-.285-2.679-.741-5.358-1.254-7.98a18.2,18.2,0,0,1,.171-7.239c.4-.171.8-.342,1.14-.513a2.823,2.823,0,0,0,1.2-1.254,1.012,1.012,0,0,0-.4-1.482,3.04,3.04,0,0,0-2.508-.4,7.79,7.79,0,0,0-3.762,3.648,5.417,5.417,0,0,0-.684,2.964,3.227,3.227,0,0,1-.741,2.052c-1.6,2.109-3.135,4.275-4.5,6.5a5.382,5.382,0,0,0,.8.057c1.6-2.394,2.166-3.135,3.819-5.529a5.138,5.138,0,0,1,.57-.513c.228.8,2,10.773,2.166,11.628a4.863,4.863,0,0,1,0,.912A4.92,4.92,0,0,0,197.22,2.28a1.345,1.345,0,0,0-.4.912,2.586,2.586,0,0,0,1.653,2.223,3.6,3.6,0,0,0,2.451-.114,5.247,5.247,0,0,0,3.933-4.275A7.688,7.688,0,0,0,205.029,0a3.361,3.361,0,0,0,.456-.228C209.988-2.793,213.693-6.9,213.978-7.7ZM204.63-20.064c.285-.228.57-.171.741.228-.456.8-.456.8-1.482,1.2A1.632,1.632,0,0,1,204.63-20.064ZM199.158,4.56c-1.026-.171-1.026-.228-1.482-1.368a3.2,3.2,0,0,1,2.907-1.71C200.583,2.793,200.526,3.99,199.158,4.56Zm1.653-11.97-.114.057c0-.285-.057-.513-.057-.741h.171Z" transform="translate(4418 2338)"/>
  </g>
</svg>
