<?xml version="1.0" encoding="utf-8"?>
<!-- Generator: Adobe Illustrator 21.0.0, SVG Export Plug-In . SVG Version: 6.00 Build 0)  -->
<svg version="1.1" id="Layer_1" xmlns="http://www.w3.org/2000/svg" xmlns:xlink="http://www.w3.org/1999/xlink" x="0px" y="0px"
	 viewBox="0 0 230 180.2" style="enable-background:new 0 0 230 180.2;" xml:space="preserve">
<style type="text/css">
	.st0{fill:#2D2D2D;}
	.st1{fill:#E0AA00;}
	.st2{fill:#2D4151;}
	.st3{fill:#A87800;}
	.st4{fill:#C49100;}
	.st5{fill:#D8D4D5;}
	.st6{fill:#C1B9BC;}
	.st7{fill:#FAFCFC;}
	.st8{fill:#76DD91;}
	.st9{fill:#E52C2C;}
	.st10{fill:#F93030;}
	.st11{fill:#E2AA2D;}
	.st12{fill:#F9C032;}
	.st13{opacity:0.2;fill:#FCFAFA;enable-background:new    ;}
	.st14{fill:#FFF9E9;}
</style>
<rect id="Rectangle_6" x="17.8" class="st0" width="194.6" height="180.2"/>
<rect id="Rectangle_8" x="25.8" y="63.7" class="st1" width="113.1" height="97.8"/>
<rect id="Rectangle_9" x="29.7" y="67.5" class="st2" width="105.5" height="90.2"/>
<rect id="Rectangle_10" x="150.2" y="55.8" class="st3" width="55.6" height="124.4"/>
<rect id="Rectangle_11" x="153.7" y="59.2" class="st1" width="48.8" height="83"/>
<rect id="Rectangle_12" x="156.5" y="62.7" class="st4" width="43.2" height="76.1"/>
<rect id="Rectangle_13" x="159.1" y="65.1" class="st2" width="38" height="71.2"/>
<rect id="Rectangle_14" x="153.5" y="145.1" class="st1" width="48.8" height="31.7"/>
<rect id="Rectangle_15" x="156.3" y="147.8" class="st3" width="43.2" height="26.3"/>
<rect id="Rectangle_16" x="159.6" y="151.1" class="st1" width="36.7" height="19.8"/>
<ellipse id="Ellipse_1" class="st5" cx="177.9" cy="92.9" rx="1.3" ry="1.3"/>
<g id="Group_7" transform="translate(171.53 138.368)">
	<path id="Path_45" class="st6" d="M12.9-40.3l-6.5-4.9l-6.2,4.8L0-40.7l6.4-4.9l6.7,5.1L12.9-40.3z"/>
</g>
<path id="Path_46" class="st1" d="M187.3,102.1c0,1.2-1,2.2-2.2,2.2H171c-1.2,0-2.2-1-2.2-2.2v-2.9c0-1.2,1-2.2,2.2-2.2h14.1
	c1.2,0,2.2,1,2.2,2.2L187.3,102.1z"/>
<g id="Group_8" transform="translate(172.473 144.012)">
	<path id="Path_47" class="st7" d="M1.2-45.6c0.7,0,1.2,0.5,1.2,1.2c0,0,0,0,0,0v2.7c0,0.7-0.5,1.2-1.1,1.2S0-41,0-41.7
		c0,0,0,0,0-0.1v-2.7C0-45.1,0.5-45.6,1.2-45.6L1.2-45.6z M1.6-44.5c0-0.2-0.2-0.4-0.4-0.4c-0.1,0-0.2,0-0.3,0.1
		c-0.1,0.1-0.1,0.2-0.1,0.3v2.7c0,0.1,0,0.2,0.1,0.3c0.1,0.1,0.2,0.1,0.3,0.1c0.2,0,0.4-0.2,0.4-0.4c0,0,0,0,0,0L1.6-44.5z"/>
	<path id="Path_48" class="st7" d="M4.2-45.6c0.3,0,0.6,0.1,0.9,0.3c0.2,0.2,0.3,0.5,0.3,0.8v0.7c0,0.3-0.1,0.6-0.3,0.8
		c-0.2,0.2-0.5,0.4-0.8,0.3H3.8v1.9H3v-4.9L4.2-45.6z M4.6-44.4c0-0.1,0-0.2-0.1-0.3c-0.1-0.1-0.2-0.1-0.3-0.1H3.8v1.6h0.4
		c0.1,0,0.2,0,0.3-0.1c0.1-0.1,0.1-0.2,0.1-0.3L4.6-44.4L4.6-44.4z"/>
	<path id="Path_49" class="st7" d="M5.9-40.6v-4.9h2.1v0.7H6.7v1.3h1v0.7h-1v1.3h1.4v0.7L5.9-40.6z"/>
	<path id="Path_50" class="st7" d="M9.4-45.6l1,3.3v-3.3h0.7v4.9h-0.8l-1-3.2v3.2H8.6v-4.9H9.4z"/>
</g>
<rect id="Rectangle_17" x="40" y="113.5" class="st8" width="1.1" height="15.5"/>
<rect id="Rectangle_18" x="49.5" y="113.5" class="st8" width="1.1" height="15.5"/>
<rect id="Rectangle_19" x="44.8" y="113.5" class="st8" width="1.1" height="15.5"/>
<path id="Path_52" class="st9" d="M40.6,114.8L40.6,114.8c-1.6,0-2.9-1.3-2.9-2.9v-4h5.8v4C43.5,113.5,42.2,114.8,40.6,114.8z"/>
<path id="Path_53" class="st9" d="M50.1,114.8L50.1,114.8c-1.6,0-2.9-1.3-2.9-2.9v-4H53v4C53,113.5,51.7,114.8,50.1,114.8z"/>
<path id="Path_54" class="st10" d="M45.4,114L45.4,114c-1.6,0-2.9-1.3-2.9-2.9v-4h5.8v4C48.3,112.7,47,114,45.4,114z"/>
<path id="Path_55" class="st8" d="M50.3,121.5L50.3,121.5c2.7,0,4.8-2.2,4.8-4.8l0,0C52.5,116.7,50.3,118.8,50.3,121.5z"/>
<path id="Path_56" class="st8" d="M40.7,121.5L40.7,121.5c-2.7,0-4.8-2.2-4.8-4.8l0,0C38.5,116.7,40.7,118.8,40.7,121.5z"/>
<rect id="Rectangle_20" x="66.4" y="116.2" class="st8" width="1.1" height="15.5"/>
<rect id="Rectangle_21" x="75.9" y="116.2" class="st8" width="1.1" height="15.5"/>
<rect id="Rectangle_22" x="71.2" y="116.2" class="st8" width="1.1" height="15.5"/>
<path id="Path_57" class="st11" d="M67,117.5L67,117.5c-1.6,0-2.9-1.3-2.9-2.9v-4h5.8v4C69.9,116.2,68.6,117.5,67,117.5z"/>
<path id="Path_58" class="st11" d="M76.5,117.5L76.5,117.5c-1.6,0-2.9-1.3-2.9-2.9v-4h5.8v4C79.4,116.2,78.1,117.5,76.5,117.5z"/>
<path id="Path_59" class="st12" d="M71.8,116.8L71.8,116.8c-1.6,0-2.9-1.3-2.9-2.9v-4h5.8v4C74.7,115.5,73.4,116.8,71.8,116.8z"/>
<path id="Path_60" class="st8" d="M76.7,124.2L76.7,124.2c2.7,0,4.8-2.2,4.8-4.8l0,0C78.9,119.4,76.7,121.6,76.7,124.2z"/>
<path id="Path_61" class="st8" d="M67.1,124.2L67.1,124.2c-2.7,0-4.8-2.2-4.8-4.8l0,0C64.9,119.4,67.1,121.6,67.1,124.2z"/>
<path id="Path_83" class="st13" d="M194.8,84.5v49.6h-28.4C166.4,134.2,191.3,126.2,194.8,84.5z"/>
<rect id="Rectangle_17_1_" x="88.7" y="113.8" class="st8" width="1.1" height="15.5"/>
<rect id="Rectangle_18_1_" x="98.2" y="113.8" class="st8" width="1.1" height="15.5"/>
<rect id="Rectangle_19_1_" x="93.4" y="113.8" class="st8" width="1.1" height="15.5"/>
<path id="Path_52_1_" class="st9" d="M89.2,115L89.2,115c-1.6,0-2.9-1.3-2.9-2.9v-4h5.8v4C92.1,113.7,90.8,115,89.2,115z"/>
<path id="Path_53_1_" class="st9" d="M98.7,115L98.7,115c-1.6,0-2.9-1.3-2.9-2.9v-4h5.8v4C101.6,113.7,100.3,115,98.7,115z"/>
<path id="Path_54_1_" class="st10" d="M94,114.3L94,114.3c-1.6,0-2.9-1.3-2.9-2.9v-4h5.8v4C96.9,113,95.6,114.3,94,114.3z"/>
<path id="Path_55_1_" class="st8" d="M99,121.8L99,121.8c2.7,0,4.8-2.2,4.8-4.8l0,0C101.1,117,99,119.1,99,121.8z"/>
<path id="Path_56_1_" class="st8" d="M89.3,121.8L89.3,121.8c-2.7,0-4.8-2.2-4.8-4.8l0,0C87.2,117,89.3,119.1,89.3,121.8z"/>
<rect id="Rectangle_20_1_" x="115.1" y="116.5" class="st8" width="1.1" height="15.5"/>
<rect id="Rectangle_21_1_" x="124.6" y="116.5" class="st8" width="1.1" height="15.5"/>
<rect id="Rectangle_22_1_" x="119.8" y="116.5" class="st8" width="1.1" height="15.5"/>
<path id="Path_57_1_" class="st11" d="M115.6,117.8L115.6,117.8c-1.6,0-2.9-1.3-2.9-2.9v-4h5.8v4
	C118.6,116.5,117.2,117.8,115.6,117.8z"/>
<path id="Path_58_1_" class="st11" d="M125.1,117.8L125.1,117.8c-1.6,0-2.9-1.3-2.9-2.9v-4h5.8v4
	C128.1,116.5,126.7,117.8,125.1,117.8z"/>
<path id="Path_59_1_" class="st12" d="M120.4,117L120.4,117c-1.6,0-2.9-1.3-2.9-2.9v-4h5.8v4C123.3,115.7,122,117,120.4,117z"/>
<path id="Path_60_1_" class="st8" d="M125.4,124.5L125.4,124.5c2.7,0,4.8-2.2,4.8-4.8l0,0C127.5,119.7,125.4,121.8,125.4,124.5z"/>
<path id="Path_61_1_" class="st8" d="M115.8,124.5L115.8,124.5c-2.7,0-4.8-2.2-4.8-4.8l0,0C113.6,119.7,115.8,121.8,115.8,124.5z"/>
<g>
	<g>
		<g>
			<path class="st1" d="M85.3,24.8c0.3-0.1,0.5-0.2,0.6-0.2c1.5,0,2.7,1.2,2.7,2.8c0,1.9-1.6,3.3-3.4,3.3c-0.6,0-1.3-0.1-2-0.5v-7.3
				c0-0.8,0-0.9-0.9-1v-0.3c0.6-0.1,1.5-0.3,2-0.5v4L85.3,24.8z M84.3,29c0,0.2,0,0.3,0.1,0.5c0.1,0.3,0.5,0.7,1.2,0.7
				c1.1,0,1.8-0.9,1.8-2.4c0-1.5-0.9-2.4-2-2.4c-0.4,0-0.7,0.1-1,0.2V29z"/>
		</g>
		<g>
			<path class="st1" d="M92.8,24.6c1.7,0,3,1.3,3,2.9c0,2.1-1.6,3.1-3,3.1c-1.9,0-3-1.4-3-2.9C89.7,25.6,91.5,24.6,92.8,24.6
				L92.8,24.6z M92.6,25c-0.8,0-1.5,0.8-1.5,2.3c0,1.7,0.7,2.9,1.8,2.9c0.8,0,1.5-0.5,1.5-2.4C94.4,26.2,93.7,25,92.6,25L92.6,25z"
				/>
		</g>
		<g>
			<path class="st1" d="M99.5,30.5v-0.4c0.6-0.1,0.7-0.2,0.5-0.5l-1-1.5c-0.3,0.5-0.6,0.9-0.8,1.3c-0.3,0.4-0.2,0.6,0.4,0.7v0.4H96
				v-0.4c0.8-0.1,1-0.2,1.5-0.9c0.4-0.5,0.7-1,1.1-1.6l-1.2-1.8c-0.4-0.6-0.6-0.7-1.3-0.8v-0.4H99v0.4c-0.6,0.1-0.6,0.2-0.4,0.6
				l0.8,1.2c0.3-0.4,0.5-0.8,0.8-1.2c0.2-0.4,0.1-0.5-0.4-0.5v-0.4h2.5v0.4c-0.8,0.1-1,0.2-1.5,0.7c-0.3,0.3-0.6,0.8-1.1,1.4l1.3,2
				c0.5,0.7,0.7,0.9,1.5,1v0.4H99.5z"/>
		</g>
		<g>
			<path class="st1" d="M109.5,24.6c1.7,0,3,1.3,3,2.9c0,2.1-1.6,3.1-3,3.1c-1.9,0-3-1.4-3-2.9C106.4,25.6,108.2,24.6,109.5,24.6
				L109.5,24.6z M109.3,25c-0.8,0-1.5,0.8-1.5,2.3c0,1.7,0.7,2.9,1.8,2.9c0.8,0,1.5-0.5,1.5-2.4C111.1,26.2,110.5,25,109.3,25
				L109.3,25z"/>
		</g>
		<g>
			<path class="st1" d="M114.1,24.8v-0.3c0-0.4,0.1-0.8,0.1-1.1c0.1-0.3,0.3-0.9,1.1-1.6c0.5-0.4,0.9-0.6,1.5-0.7
				c0.5,0,0.9,0.2,1.1,0.5c0.1,0.2,0.2,0.3,0.1,0.5c-0.1,0.1-0.1,0.2-0.3,0.3c-0.1,0.1-0.3,0.1-0.4,0c-0.3-0.3-0.7-0.5-1.1-0.5
				c-0.3,0-0.5,0.2-0.7,0.4c-0.2,0.2-0.3,0.8-0.3,2v0.5h1.6c0.1,0.1,0,0.5-0.1,0.5h-1.4V29c0,1,0.1,1,1.2,1.1v0.3h-3.3v-0.4
				c0.8-0.1,1-0.2,1-1v-3.8h-0.9l-0.1-0.2l0.4-0.4H114.1z"/>
		</g>
		<g>
			<path class="st1" d="M123,26c0.4-0.7,1-1.4,1.6-1.4c0.5,0,0.8,0.4,0.8,0.7c0,0.3-0.2,0.6-0.5,0.7c-0.2,0.1-0.3,0-0.4,0
				c-0.2-0.2-0.4-0.3-0.6-0.3c-0.3,0-0.7,0.4-1,1.1v2.4c0,0.9,0.1,0.9,1.1,1v0.4h-3.2v-0.4c0.8-0.1,0.9-0.2,0.9-1v-2.7
				c0-0.8-0.1-0.9-0.8-1v-0.3c0.7-0.1,1.3-0.3,2-0.5L123,26L123,26z"/>
		</g>
		<g>
			<path class="st1" d="M128.9,24.6c1.7,0,3,1.3,3,2.9c0,2.1-1.6,3.1-3,3.1c-1.9,0-3-1.4-3-2.9C125.9,25.6,127.6,24.6,128.9,24.6
				L128.9,24.6z M128.8,25c-0.8,0-1.5,0.8-1.5,2.3c0,1.7,0.7,2.9,1.8,2.9c0.8,0,1.5-0.5,1.5-2.4C130.5,26.2,129.9,25,128.8,25
				L128.8,25z"/>
		</g>
		<g>
			<path class="st1" d="M136.3,26.4c-0.3-0.8-0.7-1.3-1.4-1.3c-0.5,0-0.8,0.4-0.8,0.9c0,0.5,0.5,0.9,1.1,1.1c1,0.4,1.7,0.9,1.7,1.8
				c0,1.2-1.1,1.8-2.2,1.8c-0.7,0-1.3-0.2-1.6-0.4c-0.1-0.2-0.2-1.1-0.2-1.6l0.4-0.1c0.3,0.9,0.9,1.7,1.7,1.7c0.5,0,0.9-0.4,0.9-0.9
				c0-0.5-0.4-0.8-1-1.1c-0.8-0.4-1.7-0.8-1.7-1.8c0-0.9,0.8-1.7,2.1-1.7c0.6,0,0.9,0.1,1.2,0.2c0.1,0.3,0.3,1.1,0.3,1.4L136.3,26.4
				z"/>
		</g>
		<g>
			<path class="st1" d="M142.8,29.3c-0.9,1.1-1.8,1.3-2.3,1.3c-1.7,0-2.6-1.3-2.6-2.8c0-0.9,0.3-1.7,0.9-2.3c0.6-0.6,1.3-1,2-1h0
				c1.1,0,2.1,1,2.1,2c0,0.3-0.1,0.4-0.3,0.4c-0.2,0-1.9,0.2-3.5,0.2c0,1.7,1,2.4,2,2.4c0.6,0,1.1-0.2,1.6-0.7L142.8,29.3z
				 M140.5,25.1c-0.6,0-1.2,0.5-1.3,1.6c0.7,0,1.4,0,2.2,0c0.2,0,0.3-0.1,0.3-0.3C141.6,25.7,141.2,25.1,140.5,25.1L140.5,25.1z"/>
		</g>
		<g>
			<path class="st1" d="M147.1,26.4c-0.3-0.8-0.7-1.3-1.4-1.3c-0.5,0-0.8,0.4-0.8,0.9c0,0.5,0.5,0.9,1.1,1.1c1,0.4,1.7,0.9,1.7,1.8
				c0,1.2-1.1,1.8-2.2,1.8c-0.7,0-1.3-0.2-1.6-0.4c-0.1-0.2-0.2-1.1-0.2-1.6l0.4-0.1c0.3,0.9,0.9,1.7,1.7,1.7c0.5,0,0.9-0.4,0.9-0.9
				c0-0.5-0.4-0.8-1-1.1c-0.8-0.4-1.7-0.8-1.7-1.8c0-0.9,0.8-1.7,2.1-1.7c0.6,0,0.9,0.1,1.2,0.2c0.1,0.3,0.3,1.1,0.3,1.4L147.1,26.4
				z"/>
		</g>
	</g>
	<g>
		<path class="st1" d="M161.7,41H68.3V10.8h93.5V41z M68.9,40.4h92.2V11.4H68.9V40.4z"/>
	</g>
</g>
<rect x="38.3" y="125.5" class="st14" width="13.7" height="32.1"/>
<g>
	<g>
		<g>
			<path class="st1" d="M42.2,141.5C42.2,141.5,42.2,141.5,42.2,141.5c0.2,0,0.3,0.1,0.3,0.3c0,0.2-0.2,0.3-0.3,0.3
				c-0.1,0-0.1,0-0.2,0v-0.7c0-0.1,0-0.1-0.1-0.1v0c0.1,0,0.2,0,0.2,0v0.4L42.2,141.5z M42.1,141.9
				C42.1,141.9,42.1,141.9,42.1,141.9c0,0.1,0.1,0.1,0.1,0.1c0.1,0,0.2-0.1,0.2-0.2c0-0.2-0.1-0.2-0.2-0.2c0,0-0.1,0-0.1,0V141.9z"
				/>
		</g>
		<g>
			<path class="st1" d="M42.9,141.5c0.2,0,0.3,0.1,0.3,0.3c0,0.2-0.2,0.3-0.3,0.3c-0.2,0-0.3-0.1-0.3-0.3
				C42.6,141.6,42.8,141.5,42.9,141.5L42.9,141.5z M42.9,141.5c-0.1,0-0.2,0.1-0.2,0.2c0,0.2,0.1,0.3,0.2,0.3c0.1,0,0.1-0.1,0.1-0.2
				C43.1,141.6,43,141.5,42.9,141.5L42.9,141.5z"/>
		</g>
		<g>
			<path class="st1" d="M43.6,142.1L43.6,142.1C43.6,142,43.7,142,43.6,142.1l-0.1-0.2c0,0-0.1,0.1-0.1,0.1
				C43.4,142,43.4,142,43.6,142.1L43.6,142.1h-0.3v0c0.1,0,0.1,0,0.2-0.1c0,0,0.1-0.1,0.1-0.2l-0.1-0.2c0-0.1-0.1-0.1-0.1-0.1v0h0.3
				v0c-0.1,0-0.1,0,0,0.1l0.1,0.1c0,0,0.1-0.1,0.1-0.1c0,0,0,0,0-0.1v0h0.3v0c-0.1,0-0.1,0-0.1,0.1c0,0-0.1,0.1-0.1,0.1l0.1,0.2
				c0,0.1,0.1,0.1,0.1,0.1v0H43.6z"/>
		</g>
		<g>
			<path class="st1" d="M44.6,141.5c0.2,0,0.3,0.1,0.3,0.3c0,0.2-0.2,0.3-0.3,0.3c-0.2,0-0.3-0.1-0.3-0.3
				C44.3,141.6,44.5,141.5,44.6,141.5L44.6,141.5z M44.6,141.5c-0.1,0-0.2,0.1-0.2,0.2c0,0.2,0.1,0.3,0.2,0.3c0.1,0,0.1-0.1,0.1-0.2
				C44.8,141.6,44.7,141.5,44.6,141.5L44.6,141.5z"/>
		</g>
		<g>
			<path class="st1" d="M45.1,141.5L45.1,141.5c0-0.1,0-0.1,0-0.1c0,0,0-0.1,0.1-0.2c0,0,0.1-0.1,0.2-0.1c0,0,0.1,0,0.1,0
				c0,0,0,0,0,0.1c0,0,0,0,0,0c0,0,0,0,0,0c0,0-0.1-0.1-0.1-0.1c0,0-0.1,0-0.1,0c0,0,0,0.1,0,0.2v0.1h0.2c0,0,0,0,0,0.1h-0.1v0.4
				c0,0.1,0,0.1,0.1,0.1v0H45v0c0.1,0,0.1,0,0.1-0.1V141.5L45.1,141.5l-0.1,0L45.1,141.5L45.1,141.5z"/>
		</g>
		<g>
			<path class="st1" d="M46,141.6c0-0.1,0.1-0.1,0.2-0.1c0,0,0.1,0,0.1,0.1c0,0,0,0.1,0,0.1c0,0,0,0,0,0c0,0,0,0-0.1,0
				C46,141.6,46,141.6,46,141.6l0,0.3c0,0.1,0,0.1,0.1,0.1v0h-0.3v0c0.1,0,0.1,0,0.1-0.1v-0.3c0-0.1,0-0.1-0.1-0.1v0
				c0.1,0,0.1,0,0.2-0.1L46,141.6L46,141.6z"/>
		</g>
		<g>
			<path class="st1" d="M46.5,141.5c0.2,0,0.3,0.1,0.3,0.3c0,0.2-0.2,0.3-0.3,0.3c-0.2,0-0.3-0.1-0.3-0.3
				C46.2,141.6,46.4,141.5,46.5,141.5L46.5,141.5z M46.5,141.5c-0.1,0-0.2,0.1-0.2,0.2c0,0.2,0.1,0.3,0.2,0.3c0.1,0,0.1-0.1,0.1-0.2
				C46.7,141.6,46.6,141.5,46.5,141.5L46.5,141.5z"/>
		</g>
		<g>
			<path class="st1" d="M47.3,141.7c0-0.1-0.1-0.1-0.1-0.1c0,0-0.1,0-0.1,0.1c0,0.1,0.1,0.1,0.1,0.1c0.1,0,0.2,0.1,0.2,0.2
				c0,0.1-0.1,0.2-0.2,0.2c-0.1,0-0.1,0-0.2,0c0,0,0-0.1,0-0.2l0,0c0,0.1,0.1,0.2,0.2,0.2c0,0,0.1,0,0.1-0.1c0-0.1,0-0.1-0.1-0.1
				c-0.1,0-0.2-0.1-0.2-0.2c0-0.1,0.1-0.2,0.2-0.2c0.1,0,0.1,0,0.1,0C47.3,141.5,47.3,141.6,47.3,141.7L47.3,141.7z"/>
		</g>
		<g>
			<path class="st1" d="M47.9,142c-0.1,0.1-0.2,0.1-0.2,0.1c-0.2,0-0.3-0.1-0.3-0.3c0-0.1,0-0.2,0.1-0.2c0.1-0.1,0.1-0.1,0.2-0.1h0
				c0.1,0,0.2,0.1,0.2,0.2c0,0,0,0,0,0c0,0-0.2,0-0.3,0c0,0.2,0.1,0.2,0.2,0.2C47.8,142,47.9,142,47.9,142L47.9,142z M47.7,141.5
				c-0.1,0-0.1,0.1-0.1,0.2c0.1,0,0.1,0,0.2,0c0,0,0,0,0,0C47.8,141.6,47.8,141.5,47.7,141.5L47.7,141.5z"/>
		</g>
		<g>
			<path class="st1" d="M48.4,141.7c0-0.1-0.1-0.1-0.1-0.1c0,0-0.1,0-0.1,0.1c0,0.1,0.1,0.1,0.1,0.1c0.1,0,0.2,0.1,0.2,0.2
				c0,0.1-0.1,0.2-0.2,0.2c-0.1,0-0.1,0-0.2,0c0,0,0-0.1,0-0.2l0,0c0,0.1,0.1,0.2,0.2,0.2c0,0,0.1,0,0.1-0.1c0-0.1,0-0.1-0.1-0.1
				c-0.1,0-0.2-0.1-0.2-0.2c0-0.1,0.1-0.2,0.2-0.2c0.1,0,0.1,0,0.1,0C48.4,141.5,48.4,141.6,48.4,141.7L48.4,141.7z"/>
		</g>
	</g>
	<g>
		<path class="st1" d="M49.8,143.1h-9.4v-3h9.4V143.1z M40.5,143.1h9.3v-2.9h-9.3V143.1z"/>
	</g>
</g>
<rect x="65.3" y="125.5" class="st14" width="13.7" height="32.1"/>
<g>
	<g>
		<g>
			<path class="st1" d="M69.2,141.5C69.2,141.5,69.2,141.5,69.2,141.5c0.2,0,0.3,0.1,0.3,0.3c0,0.2-0.2,0.3-0.3,0.3
				c-0.1,0-0.1,0-0.2,0v-0.7c0-0.1,0-0.1-0.1-0.1v0c0.1,0,0.2,0,0.2,0v0.4L69.2,141.5z M69.1,141.9
				C69.1,141.9,69.1,141.9,69.1,141.9c0,0.1,0.1,0.1,0.1,0.1c0.1,0,0.2-0.1,0.2-0.2c0-0.2-0.1-0.2-0.2-0.2c0,0-0.1,0-0.1,0V141.9z"
				/>
		</g>
		<g>
			<path class="st1" d="M69.9,141.5c0.2,0,0.3,0.1,0.3,0.3c0,0.2-0.2,0.3-0.3,0.3c-0.2,0-0.3-0.1-0.3-0.3
				C69.6,141.6,69.8,141.5,69.9,141.5L69.9,141.5z M69.9,141.5c-0.1,0-0.2,0.1-0.2,0.2c0,0.2,0.1,0.3,0.2,0.3c0.1,0,0.1-0.1,0.1-0.2
				C70.1,141.6,70,141.5,69.9,141.5L69.9,141.5z"/>
		</g>
		<g>
			<path class="st1" d="M70.6,142.1L70.6,142.1C70.6,142,70.7,142,70.6,142.1l-0.1-0.2c0,0-0.1,0.1-0.1,0.1
				C70.4,142,70.4,142,70.6,142.1L70.6,142.1h-0.3v0c0.1,0,0.1,0,0.2-0.1c0,0,0.1-0.1,0.1-0.2l-0.1-0.2c0-0.1-0.1-0.1-0.1-0.1v0h0.3
				v0c-0.1,0-0.1,0,0,0.1l0.1,0.1c0,0,0.1-0.1,0.1-0.1c0,0,0,0,0-0.1v0h0.3v0c-0.1,0-0.1,0-0.1,0.1c0,0-0.1,0.1-0.1,0.1l0.1,0.2
				c0,0.1,0.1,0.1,0.1,0.1v0H70.6z"/>
		</g>
		<g>
			<path class="st1" d="M71.6,141.5c0.2,0,0.3,0.1,0.3,0.3c0,0.2-0.2,0.3-0.3,0.3c-0.2,0-0.3-0.1-0.3-0.3
				C71.3,141.6,71.5,141.5,71.6,141.5L71.6,141.5z M71.6,141.5c-0.1,0-0.2,0.1-0.2,0.2c0,0.2,0.1,0.3,0.2,0.3c0.1,0,0.1-0.1,0.1-0.2
				C71.8,141.6,71.7,141.5,71.6,141.5L71.6,141.5z"/>
		</g>
		<g>
			<path class="st1" d="M72.1,141.5L72.1,141.5c0-0.1,0-0.1,0-0.1c0,0,0-0.1,0.1-0.2c0,0,0.1-0.1,0.2-0.1c0,0,0.1,0,0.1,0
				c0,0,0,0,0,0.1c0,0,0,0,0,0c0,0,0,0,0,0c0,0-0.1-0.1-0.1-0.1c0,0-0.1,0-0.1,0c0,0,0,0.1,0,0.2v0.1h0.2c0,0,0,0,0,0.1h-0.1v0.4
				c0,0.1,0,0.1,0.1,0.1v0H72v0c0.1,0,0.1,0,0.1-0.1V141.5L72.1,141.5l-0.1,0L72.1,141.5L72.1,141.5z"/>
		</g>
		<g>
			<path class="st1" d="M73,141.6c0-0.1,0.1-0.1,0.2-0.1c0,0,0.1,0,0.1,0.1c0,0,0,0.1,0,0.1c0,0,0,0,0,0c0,0,0,0-0.1,0
				C73,141.6,73,141.6,73,141.6l0,0.3c0,0.1,0,0.1,0.1,0.1v0h-0.3v0c0.1,0,0.1,0,0.1-0.1v-0.3c0-0.1,0-0.1-0.1-0.1v0
				c0.1,0,0.1,0,0.2-0.1L73,141.6L73,141.6z"/>
		</g>
		<g>
			<path class="st1" d="M73.5,141.5c0.2,0,0.3,0.1,0.3,0.3c0,0.2-0.2,0.3-0.3,0.3c-0.2,0-0.3-0.1-0.3-0.3
				C73.2,141.6,73.4,141.5,73.5,141.5L73.5,141.5z M73.5,141.5c-0.1,0-0.2,0.1-0.2,0.2c0,0.2,0.1,0.3,0.2,0.3c0.1,0,0.1-0.1,0.1-0.2
				C73.7,141.6,73.6,141.5,73.5,141.5L73.5,141.5z"/>
		</g>
		<g>
			<path class="st1" d="M74.3,141.7c0-0.1-0.1-0.1-0.1-0.1c0,0-0.1,0-0.1,0.1c0,0.1,0.1,0.1,0.1,0.1c0.1,0,0.2,0.1,0.2,0.2
				c0,0.1-0.1,0.2-0.2,0.2c-0.1,0-0.1,0-0.2,0c0,0,0-0.1,0-0.2l0,0c0,0.1,0.1,0.2,0.2,0.2c0,0,0.1,0,0.1-0.1c0-0.1,0-0.1-0.1-0.1
				c-0.1,0-0.2-0.1-0.2-0.2c0-0.1,0.1-0.2,0.2-0.2c0.1,0,0.1,0,0.1,0C74.3,141.5,74.3,141.6,74.3,141.7L74.3,141.7z"/>
		</g>
		<g>
			<path class="st1" d="M74.9,142c-0.1,0.1-0.2,0.1-0.2,0.1c-0.2,0-0.3-0.1-0.3-0.3c0-0.1,0-0.2,0.1-0.2c0.1-0.1,0.1-0.1,0.2-0.1h0
				c0.1,0,0.2,0.1,0.2,0.2c0,0,0,0,0,0c0,0-0.2,0-0.3,0c0,0.2,0.1,0.2,0.2,0.2C74.8,142,74.9,142,74.9,142L74.9,142z M74.7,141.5
				c-0.1,0-0.1,0.1-0.1,0.2c0.1,0,0.1,0,0.2,0c0,0,0,0,0,0C74.8,141.6,74.8,141.5,74.7,141.5L74.7,141.5z"/>
		</g>
		<g>
			<path class="st1" d="M75.4,141.7c0-0.1-0.1-0.1-0.1-0.1c0,0-0.1,0-0.1,0.1c0,0.1,0.1,0.1,0.1,0.1c0.1,0,0.2,0.1,0.2,0.2
				c0,0.1-0.1,0.2-0.2,0.2c-0.1,0-0.1,0-0.2,0c0,0,0-0.1,0-0.2l0,0c0,0.1,0.1,0.2,0.2,0.2c0,0,0.1,0,0.1-0.1c0-0.1,0-0.1-0.1-0.1
				c-0.1,0-0.2-0.1-0.2-0.2c0-0.1,0.1-0.2,0.2-0.2c0.1,0,0.1,0,0.1,0C75.4,141.5,75.4,141.6,75.4,141.7L75.4,141.7z"/>
		</g>
	</g>
	<g>
		<path class="st1" d="M76.8,143.1h-9.4v-3h9.4V143.1z M67.5,143.1h9.3v-2.9h-9.3V143.1z"/>
	</g>
</g>
<rect x="86.6" y="125.5" class="st14" width="13.7" height="32.1"/>
<g>
	<g>
		<g>
			<path class="st1" d="M90.5,141.5C90.5,141.5,90.5,141.5,90.5,141.5c0.2,0,0.3,0.1,0.3,0.3c0,0.2-0.2,0.3-0.3,0.3
				c-0.1,0-0.1,0-0.2,0v-0.7c0-0.1,0-0.1-0.1-0.1v0c0.1,0,0.2,0,0.2,0v0.4L90.5,141.5z M90.4,141.9
				C90.4,141.9,90.4,141.9,90.4,141.9c0,0.1,0.1,0.1,0.1,0.1c0.1,0,0.2-0.1,0.2-0.2c0-0.2-0.1-0.2-0.2-0.2c0,0-0.1,0-0.1,0V141.9z"
				/>
		</g>
		<g>
			<path class="st1" d="M91.2,141.5c0.2,0,0.3,0.1,0.3,0.3c0,0.2-0.2,0.3-0.3,0.3c-0.2,0-0.3-0.1-0.3-0.3
				C90.9,141.6,91.1,141.5,91.2,141.5L91.2,141.5z M91.2,141.5c-0.1,0-0.2,0.1-0.2,0.2c0,0.2,0.1,0.3,0.2,0.3c0.1,0,0.1-0.1,0.1-0.2
				C91.4,141.6,91.3,141.5,91.2,141.5L91.2,141.5z"/>
		</g>
		<g>
			<path class="st1" d="M91.9,142.1L91.9,142.1C92,142,92,142,91.9,142.1l-0.1-0.2c0,0-0.1,0.1-0.1,0.1
				C91.7,142,91.7,142,91.9,142.1L91.9,142.1h-0.3v0c0.1,0,0.1,0,0.2-0.1c0,0,0.1-0.1,0.1-0.2l-0.1-0.2c0-0.1-0.1-0.1-0.1-0.1v0h0.3
				v0c-0.1,0-0.1,0,0,0.1l0.1,0.1c0,0,0.1-0.1,0.1-0.1c0,0,0,0,0-0.1v0h0.3v0c-0.1,0-0.1,0-0.1,0.1c0,0-0.1,0.1-0.1,0.1l0.1,0.2
				c0,0.1,0.1,0.1,0.1,0.1v0H91.9z"/>
		</g>
		<g>
			<path class="st1" d="M92.9,141.5c0.2,0,0.3,0.1,0.3,0.3c0,0.2-0.2,0.3-0.3,0.3c-0.2,0-0.3-0.1-0.3-0.3
				C92.6,141.6,92.8,141.5,92.9,141.5L92.9,141.5z M92.9,141.5c-0.1,0-0.2,0.1-0.2,0.2c0,0.2,0.1,0.3,0.2,0.3c0.1,0,0.1-0.1,0.1-0.2
				C93.1,141.6,93,141.5,92.9,141.5L92.9,141.5z"/>
		</g>
		<g>
			<path class="st1" d="M93.4,141.5L93.4,141.5c0-0.1,0-0.1,0-0.1c0,0,0-0.1,0.1-0.2c0,0,0.1-0.1,0.2-0.1c0,0,0.1,0,0.1,0
				c0,0,0,0,0,0.1c0,0,0,0,0,0c0,0,0,0,0,0c0,0-0.1-0.1-0.1-0.1c0,0-0.1,0-0.1,0c0,0,0,0.1,0,0.2v0.1h0.2c0,0,0,0,0,0.1h-0.1v0.4
				c0,0.1,0,0.1,0.1,0.1v0h-0.3v0c0.1,0,0.1,0,0.1-0.1V141.5L93.4,141.5l-0.1,0L93.4,141.5L93.4,141.5z"/>
		</g>
		<g>
			<path class="st1" d="M94.3,141.6c0-0.1,0.1-0.1,0.2-0.1c0,0,0.1,0,0.1,0.1c0,0,0,0.1,0,0.1c0,0,0,0,0,0c0,0,0,0-0.1,0
				C94.3,141.6,94.3,141.6,94.3,141.6l0,0.3c0,0.1,0,0.1,0.1,0.1v0h-0.3v0c0.1,0,0.1,0,0.1-0.1v-0.3c0-0.1,0-0.1-0.1-0.1v0
				c0.1,0,0.1,0,0.2-0.1L94.3,141.6L94.3,141.6z"/>
		</g>
		<g>
			<path class="st1" d="M94.9,141.5c0.2,0,0.3,0.1,0.3,0.3c0,0.2-0.2,0.3-0.3,0.3c-0.2,0-0.3-0.1-0.3-0.3
				C94.6,141.6,94.7,141.5,94.9,141.5L94.9,141.5z M94.9,141.5c-0.1,0-0.2,0.1-0.2,0.2c0,0.2,0.1,0.3,0.2,0.3c0.1,0,0.1-0.1,0.1-0.2
				C95,141.6,95,141.5,94.9,141.5L94.9,141.5z"/>
		</g>
		<g>
			<path class="st1" d="M95.6,141.6c0-0.1-0.1-0.1-0.1-0.1c0,0-0.1,0-0.1,0.1c0,0.1,0.1,0.1,0.1,0.1c0.1,0,0.2,0.1,0.2,0.2
				c0,0.1-0.1,0.2-0.2,0.2c-0.1,0-0.1,0-0.2,0c0,0,0-0.1,0-0.2l0,0c0,0.1,0.1,0.2,0.2,0.2c0,0,0.1,0,0.1-0.1c0-0.1,0-0.1-0.1-0.1
				c-0.1,0-0.2-0.1-0.2-0.2c0-0.1,0.1-0.2,0.2-0.2c0.1,0,0.1,0,0.1,0C95.6,141.5,95.6,141.6,95.6,141.6L95.6,141.6z"/>
		</g>
		<g>
			<path class="st1" d="M96.3,141.9c-0.1,0.1-0.2,0.1-0.2,0.1c-0.2,0-0.3-0.1-0.3-0.3c0-0.1,0-0.2,0.1-0.2c0.1-0.1,0.1-0.1,0.2-0.1
				h0c0.1,0,0.2,0.1,0.2,0.2c0,0,0,0,0,0c0,0-0.2,0-0.3,0c0,0.2,0.1,0.2,0.2,0.2C96.1,142,96.2,142,96.3,141.9L96.3,141.9z
				 M96,141.5c-0.1,0-0.1,0.1-0.1,0.2c0.1,0,0.1,0,0.2,0c0,0,0,0,0,0C96.1,141.6,96.1,141.5,96,141.5L96,141.5z"/>
		</g>
		<g>
			<path class="st1" d="M96.7,141.6c0-0.1-0.1-0.1-0.1-0.1c0,0-0.1,0-0.1,0.1c0,0.1,0.1,0.1,0.1,0.1c0.1,0,0.2,0.1,0.2,0.2
				c0,0.1-0.1,0.2-0.2,0.2c-0.1,0-0.1,0-0.2,0c0,0,0-0.1,0-0.2l0,0c0,0.1,0.1,0.2,0.2,0.2c0,0,0.1,0,0.1-0.1c0-0.1,0-0.1-0.1-0.1
				c-0.1,0-0.2-0.1-0.2-0.2c0-0.1,0.1-0.2,0.2-0.2c0.1,0,0.1,0,0.1,0C96.7,141.5,96.7,141.6,96.7,141.6L96.7,141.6z"/>
		</g>
	</g>
	<g>
		<path class="st1" d="M98.2,143.1h-9.4v-3h9.4V143.1z M88.8,143.1h9.3v-2.9h-9.3V143.1z"/>
	</g>
</g>
<rect x="113.6" y="125.5" class="st14" width="13.7" height="32.1"/>
<g>
	<g>
		<g>
			<path class="st1" d="M117.5,141.5C117.5,141.5,117.5,141.5,117.5,141.5c0.2,0,0.3,0.1,0.3,0.3c0,0.2-0.2,0.3-0.3,0.3
				c-0.1,0-0.1,0-0.2,0v-0.7c0-0.1,0-0.1-0.1-0.1v0c0.1,0,0.2,0,0.2,0v0.4L117.5,141.5z M117.4,141.9
				C117.4,141.9,117.4,141.9,117.4,141.9c0,0.1,0.1,0.1,0.1,0.1c0.1,0,0.2-0.1,0.2-0.2c0-0.2-0.1-0.2-0.2-0.2c0,0-0.1,0-0.1,0V141.9
				z"/>
		</g>
		<g>
			<path class="st1" d="M118.2,141.5c0.2,0,0.3,0.1,0.3,0.3c0,0.2-0.2,0.3-0.3,0.3c-0.2,0-0.3-0.1-0.3-0.3
				C117.9,141.6,118.1,141.5,118.2,141.5L118.2,141.5z M118.2,141.5c-0.1,0-0.2,0.1-0.2,0.2c0,0.2,0.1,0.3,0.2,0.3
				c0.1,0,0.1-0.1,0.1-0.2C118.4,141.6,118.3,141.5,118.2,141.5L118.2,141.5z"/>
		</g>
		<g>
			<path class="st1" d="M118.9,142.1L118.9,142.1C119,142,119,142,118.9,142.1l-0.1-0.2c0,0-0.1,0.1-0.1,0.1
				C118.7,142,118.7,142,118.9,142.1L118.9,142.1h-0.3v0c0.1,0,0.1,0,0.2-0.1c0,0,0.1-0.1,0.1-0.2l-0.1-0.2c0-0.1-0.1-0.1-0.1-0.1v0
				h0.3v0c-0.1,0-0.1,0,0,0.1l0.1,0.1c0,0,0.1-0.1,0.1-0.1c0,0,0,0,0-0.1v0h0.3v0c-0.1,0-0.1,0-0.1,0.1c0,0-0.1,0.1-0.1,0.1l0.1,0.2
				c0,0.1,0.1,0.1,0.1,0.1v0H118.9z"/>
		</g>
		<g>
			<path class="st1" d="M119.9,141.5c0.2,0,0.3,0.1,0.3,0.3c0,0.2-0.2,0.3-0.3,0.3c-0.2,0-0.3-0.1-0.3-0.3
				C119.6,141.6,119.8,141.5,119.9,141.5L119.9,141.5z M119.9,141.5c-0.1,0-0.2,0.1-0.2,0.2c0,0.2,0.1,0.3,0.2,0.3
				c0.1,0,0.1-0.1,0.1-0.2C120.1,141.6,120,141.5,119.9,141.5L119.9,141.5z"/>
		</g>
		<g>
			<path class="st1" d="M120.4,141.5L120.4,141.5c0-0.1,0-0.1,0-0.1c0,0,0-0.1,0.1-0.2c0,0,0.1-0.1,0.2-0.1c0,0,0.1,0,0.1,0
				c0,0,0,0,0,0.1c0,0,0,0,0,0c0,0,0,0,0,0c0,0-0.1-0.1-0.1-0.1c0,0-0.1,0-0.1,0c0,0,0,0.1,0,0.2v0.1h0.2c0,0,0,0,0,0.1h-0.1v0.4
				c0,0.1,0,0.1,0.1,0.1v0h-0.3v0c0.1,0,0.1,0,0.1-0.1V141.5L120.4,141.5l-0.1,0L120.4,141.5L120.4,141.5z"/>
		</g>
		<g>
			<path class="st1" d="M121.3,141.6c0-0.1,0.1-0.1,0.2-0.1c0,0,0.1,0,0.1,0.1c0,0,0,0.1,0,0.1c0,0,0,0,0,0c0,0,0,0-0.1,0
				C121.3,141.6,121.3,141.6,121.3,141.6l0,0.3c0,0.1,0,0.1,0.1,0.1v0h-0.3v0c0.1,0,0.1,0,0.1-0.1v-0.3c0-0.1,0-0.1-0.1-0.1v0
				c0.1,0,0.1,0,0.2-0.1L121.3,141.6L121.3,141.6z"/>
		</g>
		<g>
			<path class="st1" d="M121.9,141.5c0.2,0,0.3,0.1,0.3,0.3c0,0.2-0.2,0.3-0.3,0.3c-0.2,0-0.3-0.1-0.3-0.3
				C121.6,141.6,121.7,141.5,121.9,141.5L121.9,141.5z M121.9,141.5c-0.1,0-0.2,0.1-0.2,0.2c0,0.2,0.1,0.3,0.2,0.3
				c0.1,0,0.1-0.1,0.1-0.2C122,141.6,122,141.5,121.9,141.5L121.9,141.5z"/>
		</g>
		<g>
			<path class="st1" d="M122.6,141.6c0-0.1-0.1-0.1-0.1-0.1c0,0-0.1,0-0.1,0.1c0,0.1,0.1,0.1,0.1,0.1c0.1,0,0.2,0.1,0.2,0.2
				c0,0.1-0.1,0.2-0.2,0.2c-0.1,0-0.1,0-0.2,0c0,0,0-0.1,0-0.2l0,0c0,0.1,0.1,0.2,0.2,0.2c0,0,0.1,0,0.1-0.1c0-0.1,0-0.1-0.1-0.1
				c-0.1,0-0.2-0.1-0.2-0.2c0-0.1,0.1-0.2,0.2-0.2c0.1,0,0.1,0,0.1,0C122.6,141.5,122.6,141.6,122.6,141.6L122.6,141.6z"/>
		</g>
		<g>
			<path class="st1" d="M123.3,141.9c-0.1,0.1-0.2,0.1-0.2,0.1c-0.2,0-0.3-0.1-0.3-0.3c0-0.1,0-0.2,0.1-0.2c0.1-0.1,0.1-0.1,0.2-0.1
				h0c0.1,0,0.2,0.1,0.2,0.2c0,0,0,0,0,0c0,0-0.2,0-0.3,0c0,0.2,0.1,0.2,0.2,0.2C123.1,142,123.2,142,123.3,141.9L123.3,141.9z
				 M123,141.5c-0.1,0-0.1,0.1-0.1,0.2c0.1,0,0.1,0,0.2,0c0,0,0,0,0,0C123.1,141.6,123.1,141.5,123,141.5L123,141.5z"/>
		</g>
		<g>
			<path class="st1" d="M123.7,141.6c0-0.1-0.1-0.1-0.1-0.1c0,0-0.1,0-0.1,0.1c0,0.1,0.1,0.1,0.1,0.1c0.1,0,0.2,0.1,0.2,0.2
				c0,0.1-0.1,0.2-0.2,0.2c-0.1,0-0.1,0-0.2,0c0,0,0-0.1,0-0.2l0,0c0,0.1,0.1,0.2,0.2,0.2c0,0,0.1,0,0.1-0.1c0-0.1,0-0.1-0.1-0.1
				c-0.1,0-0.2-0.1-0.2-0.2c0-0.1,0.1-0.2,0.2-0.2c0.1,0,0.1,0,0.1,0C123.7,141.5,123.7,141.6,123.7,141.6L123.7,141.6z"/>
		</g>
	</g>
	<g>
		<path class="st1" d="M125.2,143.1h-9.4v-3h9.4V143.1z M115.8,143.1h9.3v-2.9h-9.3V143.1z"/>
	</g>
</g>
<path id="Path_75" class="st13" d="M43.6,157.8h91.4v-52.3C135.1,105.5,120.4,151.4,43.6,157.8z"/>
</svg>
